<?xml version="1.0" encoding="utf-8"?>
<!-- Generator: Adobe Illustrator 16.0.5, SVG Export Plug-In . SVG Version: 6.00 Build 0)  -->
<!DOCTYPE svg PUBLIC "-//W3C//DTD SVG 1.1//EN" "http://www.w3.org/Graphics/SVG/1.1/DTD/svg11.dtd">
<svg version="1.1" id="Layer_1" xmlns="http://www.w3.org/2000/svg" xmlns:xlink="http://www.w3.org/1999/xlink" x="0px" y="0px"
	 width="1185.714px" height="900px" viewBox="0 0 1185.714 900" enable-background="new 0 0 1185.714 900" xml:space="preserve">
<g id="Layer_2">
	<g>
		<g>
			<path fill="#F1613D" d="M601.31,795h-12v-47.432c0-14.337,11.663-26,26-26h277.932c7.72,0,14-6.28,14-14V581.93
				c0-7.72-6.28-14-14-14H297.381c-14.336,0-26-11.664-26-26V419.542c0-14.336,11.664-26,26-26h595.861c7.72,0,14-6.28,14-14
				V253.905c0-7.72-6.28-14-14-14H297.381c-14.336,0-26-11.664-26-26V108.095c0-14.336,11.664-26,26-26h275.477
				c8.013,0,14-4.06,14-7.689V52.381h12v22.024c0,11.041-11.42,19.689-26,19.689H297.381c-7.72,0-14,6.28-14,14v105.811
				c0,7.72,6.28,14,14,14h595.861c14.337,0,26,11.664,26,26v125.637c0,14.336-11.663,26-26,26H297.381c-7.72,0-14,6.28-14,14V541.93
				c0,7.72,6.28,14,14,14h595.861c14.337,0,26,11.663,26,26v125.639c0,14.336-11.663,26-26,26H615.31c-7.72,0-14,6.28-14,14V795z"/>
		</g>
	</g>
	<g>
		<g>
			<path fill="#00A380" d="M404.452,190.048c0,7.15-5.851,13-13,13h-224c-7.15,0-13-5.85-13-13v-62.105c0-7.15,5.85-13,13-13h224
				c7.149,0,13,5.85,13,13V190.048z"/>
		</g>
	</g>
	<g>
		<g>
			<path fill="#00A380" d="M1033.511,351.743c0,7.15-5.85,13-13,13H775.224c-7.148,0-13-5.85-13-13v-65.208c0-7.15,5.852-13,13-13
				h245.287c7.15,0,13,5.85,13,13V351.743z"/>
		</g>
	</g>
	<g>
		<g>
			<path fill="#00A380" d="M429.366,521.572c0,7.148-5.851,13-13,13H139.699c-7.15,0-13-5.852-13-13V441.62c0-7.15,5.85-13,13-13
				h276.667c7.149,0,13,5.85,13,13V521.572z"/>
		</g>
	</g>
	<g>
		<g>
			<path fill="#00A380" d="M1041.992,676.792c0,7.15-5.85,13-13,13H803.861c-7.15,0-13-5.85-13-13v-63.237c0-7.149,5.85-13,13-13
				h225.131c7.15,0,13,5.851,13,13V676.792z"/>
		</g>
	</g>
</g>
<g id="Layer_1_1_">
	<g enable-background="new    ">
		<path d="M461.917,34.986l-2.244,7.87h-3.553l-3.995-14.023h3.553l2.396,9.621h0.085l2.55-9.621h2.414l2.549,9.621h0.085
			l2.397-9.621h3.536l-3.995,14.023h-3.536L461.917,34.986z"/>
		<path d="M475.653,42.856h-3.196V28.833h3.196v5.592h4.521v-5.592h3.195v14.023h-3.195V37.23h-4.521V42.856z"/>
		<path d="M498.194,42.856h-3.434l-1.037-2.805h-5.337l-1.037,2.805h-3.434l5.661-14.023h2.958L498.194,42.856z M491.072,33.167
			h-0.034l-1.564,4.08h3.162L491.072,33.167z"/>
		<path d="M497.04,28.833h9.859v2.805h-3.332v11.219h-3.196V31.638h-3.332V28.833z"/>
		<path d="M515.892,42.856h-3.195V28.833h3.195v5.592h4.522v-5.592h3.195v14.023h-3.195V37.23h-4.522V42.856z"/>
		<path d="M538.433,42.856H535l-1.037-2.805h-5.337l-1.037,2.805h-3.434l5.661-14.023h2.958L538.433,42.856z M531.311,33.167h-0.034
			l-1.564,4.08h3.162L531.311,33.167z"/>
		<path d="M544.095,28.833c2.737,0,4.793,1.411,4.793,4.317c0,2.89-2.057,4.505-4.793,4.505h-1.921v5.201h-3.195V28.833H544.095z
			 M543.075,35.105c1.258,0,2.448-0.425,2.448-1.854c0-1.444-1.19-1.869-2.448-1.869h-0.901v3.723H543.075z"/>
		<path d="M555.417,28.833c2.737,0,4.793,1.411,4.793,4.317c0,2.89-2.057,4.505-4.793,4.505h-1.92v5.201H550.3V28.833H555.417z
			 M554.397,35.105c1.258,0,2.448-0.425,2.448-1.854c0-1.444-1.19-1.869-2.448-1.869h-0.901v3.723H554.397z"/>
		<path d="M569.645,31.638h-4.827v2.787h4.623v2.806h-4.623v2.821h4.827v2.805h-8.023V28.833h8.023V31.638z"/>
		<path d="M574.677,42.856h-3.195V28.833h3.195l5.576,8.703h0.034v-8.703h3.195v14.023h-3.195l-5.576-8.703h-0.034V42.856z"/>
		<path d="M594.703,29.903l-1.292,2.55c0,0-1.394-0.969-2.839-0.969c-1.088,0-1.666,0.493-1.666,1.258
			c0,0.782,1.326,1.343,2.923,2.023c1.564,0.662,3.281,1.988,3.281,3.824c0,3.349-2.55,4.521-5.287,4.521
			c-3.281,0-5.27-1.853-5.27-1.853l1.598-2.686c0,0,1.87,1.58,3.434,1.58c0.697,0,2.023-0.067,2.023-1.377
			c0-1.02-1.496-1.479-3.162-2.312c-1.683-0.833-2.669-2.142-2.669-3.604c0-2.617,2.312-4.283,4.573-4.283
			C592.901,28.578,594.703,29.903,594.703,29.903z"/>
		<path d="M614.031,42.856h-3.434l-1.037-2.805h-5.337l-1.037,2.805h-3.434l5.661-14.023h2.957L614.031,42.856z M606.909,33.167
			h-0.034l-1.563,4.08h3.161L606.909,33.167z"/>
		<path d="M622.684,31.638h-4.913v2.787h4.539v2.806h-4.539v5.626h-3.195V28.833h8.108V31.638z"/>
		<path d="M622.515,28.833h9.859v2.805h-3.332v11.219h-3.195V31.638h-3.332V28.833z"/>
		<path d="M641.554,31.638h-4.828v2.787h4.625v2.806h-4.625v2.821h4.828v2.805h-8.023V28.833h8.023V31.638z"/>
		<path d="M648.406,28.833c2.601,0,4.572,1.411,4.572,4.164c0,2.108-1.156,3.519-2.873,4.062l4.828,5.797h-4.062l-4.283-5.541v5.541
			h-3.196V28.833H648.406z M646.96,35.055c1.207,0,2.652-0.085,2.652-1.836s-1.445-1.836-2.652-1.836h-0.373v3.672H646.96z"/>
		<path d="M660.986,28.833l2.924,4.487l2.924-4.487h3.841l-5.167,7.734v6.289h-3.195v-6.289l-5.168-7.734H660.986z"/>
		<path d="M677.628,28.578c3.893,0,7.054,3.161,7.054,7.258s-3.026,7.275-7.054,7.275c-4.148,0-7.072-3.179-7.072-7.275
			S673.769,28.578,677.628,28.578z M677.628,40.018c2.549,0,3.604-2.091,3.604-4.182s-1.123-4.182-3.604-4.182
			c-2.465,0-3.621,2.091-3.621,4.182S675.01,40.018,677.628,40.018z"/>
		<path d="M696.872,37.876c0,3.468-1.903,5.235-5.474,5.235c-3.569,0-5.473-1.768-5.473-5.235v-9.043h3.195v8.108
			c0,2.346,0.713,3.025,2.277,3.025s2.277-0.68,2.277-3.025v-8.108h3.196V37.876z"/>
		<path d="M716.166,42.856h-3.434l-1.037-2.805h-5.337l-1.037,2.805h-3.434l5.661-14.023h2.957L716.166,42.856z M709.043,33.167
			h-0.034l-1.563,4.08h3.161L709.043,33.167z"/>
		<path d="M721.828,28.833c2.736,0,4.793,1.411,4.793,4.317c0,2.89-2.057,4.505-4.793,4.505h-1.92v5.201h-3.196V28.833H721.828z
			 M720.808,35.105c1.258,0,2.447-0.425,2.447-1.854c0-1.444-1.189-1.869-2.447-1.869h-0.9v3.723H720.808z"/>
		<path d="M733.15,28.833c2.736,0,4.793,1.411,4.793,4.317c0,2.89-2.057,4.505-4.793,4.505h-1.922v5.201h-3.195V28.833H733.15z
			 M732.13,35.105c1.258,0,2.447-0.425,2.447-1.854c0-1.444-1.189-1.869-2.447-1.869h-0.902v3.723H732.13z"/>
		<path d="M742.55,40.052h4.828v2.805h-8.023V28.833h3.195V40.052z"/>
		<path d="M749.945,28.833l2.924,4.487l2.924-4.487h3.842l-5.168,7.734v6.289h-3.195v-6.289l-5.167-7.734H749.945z"/>
		<path d="M759.517,31.791c0-0.085,0.73-3.213,4.521-3.213c2.549,0,4.827,1.666,4.827,4.062c0,1.666-1.241,2.686-2.873,3.383
			c-0.577,0.255-0.595,0.73-0.595,1.292v0.951h-2.805v-1.853c0-0.748,0.033-1.359,0.799-1.853c1.037-0.663,2.006-0.714,2.006-1.921
			c0-0.816-0.611-1.394-1.377-1.394c-1.225,0-1.818,1.02-2.006,1.75L759.517,31.791z M765.942,41.174
			c0,1.07-0.867,1.938-1.955,1.938c-1.071,0-1.938-0.867-1.938-1.938c0-1.088,0.866-1.955,1.938-1.955
			C765.075,39.219,765.942,40.086,765.942,41.174z"/>
	</g>
	<g enable-background="new    ">
		<path fill="#FFFFFF" d="M184.363,134.691h-4.912v2.787h4.538v2.806h-4.538v5.626h-3.196v-14.023h8.108V134.691z"/>
		<path fill="#FFFFFF" d="M189.089,145.91h-3.196v-14.023h3.196V145.91z"/>
		<path fill="#FFFFFF" d="M196.144,131.887c2.601,0,4.573,1.411,4.573,4.164c0,2.108-1.156,3.519-2.873,4.062l4.827,5.797h-4.062
			l-4.284-5.541v5.541h-3.195v-14.023H196.144z M194.699,138.108c1.207,0,2.652-0.085,2.652-1.836s-1.445-1.836-2.652-1.836h-0.374
			v3.672H194.699z"/>
		<path fill="#FFFFFF" d="M212.82,132.957l-1.292,2.55c0,0-1.394-0.969-2.839-0.969c-1.088,0-1.666,0.493-1.666,1.258
			c0,0.782,1.326,1.343,2.923,2.023c1.564,0.662,3.281,1.988,3.281,3.824c0,3.349-2.55,4.521-5.286,4.521
			c-3.281,0-5.27-1.853-5.27-1.853l1.598-2.686c0,0,1.87,1.58,3.434,1.58c0.697,0,2.023-0.067,2.023-1.377
			c0-1.02-1.496-1.479-3.162-2.312c-1.683-0.833-2.669-2.142-2.669-3.604c0-2.617,2.312-4.283,4.573-4.283
			C211.019,131.632,212.82,132.957,212.82,132.957z"/>
		<path fill="#FFFFFF" d="M213.026,131.887h9.859v2.805h-3.332v11.219h-3.196v-11.219h-3.332V131.887z"/>
		<path fill="#FFFFFF" d="M227.237,143.105h4.828v2.805h-8.023v-14.023h3.195V143.105z"/>
		<path fill="#FFFFFF" d="M234.632,131.887l2.924,4.487l2.924-4.487h3.841l-5.167,7.734v6.289h-3.195v-6.289l-5.167-7.734H234.632z"
			/>
		<path fill="#FFFFFF" d="M260.403,137.598h-0.085l-2.873,8.228h-1.904l-2.873-8.228h-0.085l-0.663,8.312h-3.196l1.258-14.023h3.4
			l3.11,8.091l3.111-8.091h3.399l1.258,14.023h-3.196L260.403,137.598z"/>
		<path fill="#FFFFFF" d="M278.338,145.91h-3.434l-1.037-2.805h-5.337l-1.037,2.805h-3.434l5.661-14.023h2.958L278.338,145.91z
			 M271.215,136.221h-0.034l-1.564,4.08h3.162L271.215,136.221z"/>
		<path fill="#FFFFFF" d="M287.247,145.91l-5.168-5.949v5.949h-3.195v-14.023h3.195v5.729l4.811-5.729h3.876l-5.644,6.646
			l6.527,7.377H287.247z"/>
		<path fill="#FFFFFF" d="M300.285,134.691h-4.827v2.787h4.623v2.806h-4.623v2.821h4.827v2.805h-8.023v-14.023h8.023V134.691z"/>
		<path fill="#FFFFFF" d="M315.942,132.957l-1.292,2.55c0,0-1.394-0.969-2.839-0.969c-1.088,0-1.666,0.493-1.666,1.258
			c0,0.782,1.326,1.343,2.923,2.023c1.564,0.662,3.281,1.988,3.281,3.824c0,3.349-2.55,4.521-5.286,4.521
			c-3.281,0-5.27-1.853-5.27-1.853l1.598-2.686c0,0,1.87,1.58,3.434,1.58c0.697,0,2.023-0.067,2.023-1.377
			c0-1.02-1.496-1.479-3.162-2.312c-1.683-0.833-2.669-2.142-2.669-3.604c0-2.617,2.312-4.283,4.573-4.283
			C314.14,131.632,315.942,132.957,315.942,132.957z"/>
		<path fill="#FFFFFF" d="M328.624,140.93c0,3.468-1.904,5.235-5.474,5.235c-3.569,0-5.473-1.768-5.473-5.235v-9.043h3.195v8.108
			c0,2.346,0.714,3.025,2.278,3.025c1.564,0,2.278-0.68,2.278-3.025v-8.108h3.196V140.93z"/>
		<path fill="#FFFFFF" d="M335.509,131.887c2.601,0,4.573,1.411,4.573,4.164c0,2.108-1.156,3.519-2.873,4.062l4.827,5.797h-4.062
			l-4.284-5.541v5.541h-3.195v-14.023H335.509z M334.064,138.108c1.207,0,2.652-0.085,2.652-1.836s-1.445-1.836-2.652-1.836h-0.374
			v3.672H334.064z"/>
		<path fill="#FFFFFF" d="M350.689,134.691h-4.828v2.787h4.624v2.806h-4.624v2.821h4.828v2.805h-8.023v-14.023h8.023V134.691z"/>
		<path fill="#FFFFFF" d="M355.467,131.887h9.859v2.805h-3.332v11.219h-3.196v-11.219h-3.332V131.887z"/>
		<path fill="#FFFFFF" d="M372.381,131.632c3.893,0,7.054,3.161,7.054,7.258s-3.026,7.275-7.054,7.275
			c-4.148,0-7.071-3.179-7.071-7.275S368.522,131.632,372.381,131.632z M372.381,143.071c2.55,0,3.604-2.091,3.604-4.182
			s-1.122-4.182-3.604-4.182c-2.465,0-3.621,2.091-3.621,4.182S369.764,143.071,372.381,143.071z"/>
	</g>
	<g enable-background="new    ">
		<path fill="#FFFFFF" d="M184.72,161.5c-0.765,3.553-3.723,5.065-6.477,5.065c-3.773,0-6.833-3.247-6.833-7.258
			c0-4.029,2.89-7.275,6.833-7.275c2.465,0,4.182,0.918,5.406,2.396l-2.091,2.295c-0.816-1.309-1.887-1.802-3.128-1.802
			c-1.972,0-3.569,1.955-3.569,4.386c0,2.38,1.598,4.317,3.569,4.317c1.53,0,3.043-0.986,3.043-2.703h-3.23v-2.465h6.477V161.5z"/>
		<path fill="#FFFFFF" d="M194.155,155.092h-4.827v2.787h4.623v2.806h-4.623v2.821h4.827v2.805h-8.023v-14.023h8.023V155.092z"/>
		<path fill="#FFFFFF" d="M195.108,152.287h9.859v2.805h-3.332v11.219h-3.196v-11.219h-3.332V152.287z"/>
		<path fill="#FFFFFF" d="M211.546,152.287l2.924,4.487l2.924-4.487h3.841l-5.167,7.734v6.289h-3.195v-6.289l-5.167-7.734H211.546z"
			/>
		<path fill="#FFFFFF" d="M228.189,152.032c3.893,0,7.054,3.161,7.054,7.258s-3.026,7.275-7.054,7.275
			c-4.148,0-7.071-3.179-7.071-7.275S224.33,152.032,228.189,152.032z M228.189,163.472c2.55,0,3.604-2.091,3.604-4.182
			s-1.122-4.182-3.604-4.182c-2.465,0-3.621,2.091-3.621,4.182S225.571,163.472,228.189,163.472z"/>
		<path fill="#FFFFFF" d="M247.432,161.33c0,3.468-1.904,5.235-5.474,5.235c-3.569,0-5.473-1.768-5.473-5.235v-9.043h3.195v8.108
			c0,2.346,0.714,3.025,2.278,3.025c1.564,0,2.278-0.68,2.278-3.025v-8.108h3.196V161.33z"/>
		<path fill="#FFFFFF" d="M254.317,152.287c2.601,0,4.573,1.411,4.573,4.164c0,2.108-1.156,3.519-2.873,4.062l4.827,5.797h-4.062
			l-4.284-5.541v5.541h-3.195v-14.023H254.317z M252.873,158.509c1.207,0,2.652-0.085,2.652-1.836s-1.445-1.836-2.652-1.836h-0.374
			v3.672H252.873z"/>
		<path fill="#FFFFFF" d="M278.899,166.311h-3.434l-1.037-2.805h-5.337l-1.037,2.805h-3.434l5.661-14.023h2.958L278.899,166.311z
			 M271.776,156.621h-0.034l-1.564,4.08h3.162L271.776,156.621z"/>
		<path fill="#FFFFFF" d="M284.56,152.287c2.737,0,4.793,1.411,4.793,4.317c0,2.89-2.057,4.505-4.793,4.505h-1.921v5.201h-3.195
			v-14.023H284.56z M283.541,158.56c1.258,0,2.448-0.425,2.448-1.854c0-1.444-1.19-1.869-2.448-1.869h-0.901v3.723H283.541z"/>
		<path fill="#FFFFFF" d="M295.882,152.287c2.737,0,4.793,1.411,4.793,4.317c0,2.89-2.057,4.505-4.793,4.505h-1.92v5.201h-3.196
			v-14.023H295.882z M294.862,158.56c1.258,0,2.448-0.425,2.448-1.854c0-1.444-1.19-1.869-2.448-1.869h-0.901v3.723H294.862z"/>
		<path fill="#FFFFFF" d="M305.283,163.506h4.828v2.805h-8.023v-14.023h3.195V163.506z"/>
		<path fill="#FFFFFF" d="M314.888,166.311h-3.196v-14.023h3.196V166.311z"/>
		<path fill="#FFFFFF" d="M326.6,162.554l1.36,2.72c0,0-1.564,1.292-4.606,1.292c-3.96,0-7.598-3.229-7.598-7.241
			c0-4.028,3.621-7.292,7.598-7.292c3.042,0,4.606,1.292,4.606,1.292l-1.36,2.72c0,0-1.122-0.867-2.754-0.867
			c-3.212,0-4.624,2.244-4.624,4.113c0,1.887,1.411,4.131,4.624,4.131C325.478,163.421,326.6,162.554,326.6,162.554z"/>
		<path fill="#FFFFFF" d="M341.968,166.311h-3.434l-1.037-2.805h-5.337l-1.037,2.805h-3.434l5.661-14.023h2.958L341.968,166.311z
			 M334.845,156.621h-0.034l-1.564,4.08h3.162L334.845,156.621z"/>
		<path fill="#FFFFFF" d="M340.813,152.287h9.859v2.805h-3.332v11.219h-3.195v-11.219h-3.332V152.287z"/>
		<path fill="#FFFFFF" d="M355.025,166.311h-3.196v-14.023h3.196V166.311z"/>
		<path fill="#FFFFFF" d="M363.507,152.032c3.893,0,7.054,3.161,7.054,7.258s-3.026,7.275-7.054,7.275
			c-4.148,0-7.071-3.179-7.071-7.275S359.648,152.032,363.507,152.032z M363.507,163.472c2.55,0,3.604-2.091,3.604-4.182
			s-1.122-4.182-3.604-4.182c-2.465,0-3.621,2.091-3.621,4.182S360.89,163.472,363.507,163.472z"/>
		<path fill="#FFFFFF" d="M375.169,166.311h-3.195v-14.023h3.195l5.576,8.703h0.034v-8.703h3.195v14.023h-3.195l-5.576-8.703h-0.034
			V166.311z"/>
	</g>
	<g enable-background="new    ">
		<path fill="#FFFFFF" d="M234.258,186.711h-3.196v-14.023h3.196V186.711z"/>
		<path fill="#FFFFFF" d="M239.493,186.711h-3.195v-14.023h3.195l5.576,8.703h0.034v-8.703h3.195v14.023h-3.195l-5.576-8.703h-0.034
			V186.711z"/>
		<path fill="#FFFFFF" d="M261.423,172.433c3.893,0,7.054,3.161,7.054,7.258s-3.026,7.275-7.054,7.275
			c-4.148,0-7.071-3.179-7.071-7.275S257.564,172.433,261.423,172.433z M261.423,183.872c2.55,0,3.604-2.091,3.604-4.182
			s-1.122-4.182-3.604-4.182c-2.465,0-3.621,2.091-3.621,4.182S258.806,183.872,261.423,183.872z"/>
		<path fill="#FFFFFF" d="M273.085,186.711h-3.195v-14.023h3.195l5.576,8.703h0.034v-8.703h3.195v14.023h-3.195l-5.576-8.703h-0.034
			V186.711z"/>
		<path fill="#FFFFFF" d="M286.873,172.688h9.859v2.805H293.4v11.219h-3.196v-11.219h-3.332V172.688z"/>
		<path fill="#FFFFFF" d="M301.084,186.711h-3.195v-14.023h3.195V186.711z"/>
		<path fill="#FFFFFF" d="M314.054,178.398h-0.085l-2.873,8.228h-1.904l-2.873-8.228h-0.085l-0.663,8.312h-3.196l1.258-14.023h3.4
			l3.11,8.091l3.111-8.091h3.4l1.258,14.023h-3.196L314.054,178.398z"/>
		<path fill="#FFFFFF" d="M327.229,175.492h-4.827v2.787h4.623v2.806h-4.623v2.821h4.827v2.805h-8.023v-14.023h8.023V175.492z"/>
	</g>
	<g enable-background="new    ">
		<path fill="#FFFFFF" d="M773.685,304.025h-3.195v-14.023h3.195V304.025z"/>
		<path fill="#FFFFFF" d="M778.92,304.025h-3.195v-14.023h3.195l5.575,8.703h0.035v-8.703h3.195v14.023h-3.195l-5.576-8.703h-0.034
			V304.025z"/>
		<path fill="#FFFFFF" d="M792.708,290.002h9.859v2.805h-3.332v11.219h-3.195v-11.219h-3.332V290.002z"/>
		<path fill="#FFFFFF" d="M806.919,304.025h-3.195v-14.023h3.195v5.592h4.521v-5.592h3.195v14.023h-3.195v-5.626h-4.521V304.025z"/>
		<path fill="#FFFFFF" d="M824.701,292.807h-4.827v2.787h4.623v2.806h-4.623v2.821h4.827v2.805h-8.023v-14.023h8.023V292.807z"/>
		<path fill="#FFFFFF" d="M842.109,295.713h-0.086l-2.872,8.228h-1.903l-2.873-8.228h-0.086l-0.662,8.312h-3.195l1.258-14.023h3.399
			l3.11,8.091l3.111-8.091h3.399l1.258,14.023h-3.196L842.109,295.713z"/>
		<path fill="#FFFFFF" d="M855.284,292.807h-4.827v2.787h4.623v2.806h-4.623v2.821h4.827v2.805h-8.022v-14.023h8.022V292.807z"/>
		<path fill="#FFFFFF" d="M870.005,304.025h-3.434l-1.037-2.805h-5.338l-1.037,2.805h-3.434l5.66-14.023h2.958L870.005,304.025z
			 M862.882,294.336h-0.033l-1.564,4.08h3.162L862.882,294.336z"/>
		<path fill="#FFFFFF" d="M873.746,304.025h-3.195v-14.023h3.195l5.576,8.703h0.033v-8.703h3.195v14.023h-3.195l-5.575-8.703h-0.034
			V304.025z"/>
		<path fill="#FFFFFF" d="M887.533,290.002h9.859v2.805h-3.332v11.219h-3.195v-11.219h-3.332V290.002z"/>
		<path fill="#FFFFFF" d="M901.745,304.025h-3.196v-14.023h3.196V304.025z"/>
		<path fill="#FFFFFF" d="M914.714,295.713h-0.084l-2.873,8.228h-1.904l-2.872-8.228h-0.085l-0.663,8.312h-3.196l1.258-14.023h3.4
			l3.11,8.091l3.11-8.091h3.4l1.258,14.023h-3.195L914.714,295.713z"/>
		<path fill="#FFFFFF" d="M927.89,292.807h-4.827v2.787h4.623v2.806h-4.623v2.821h4.827v2.805h-8.023v-14.023h8.023V292.807z"/>
		<path fill="#FFFFFF" d="M941.439,296.155l-2.244,7.87h-3.553l-3.994-14.023h3.553l2.396,9.621h0.085l2.55-9.621h2.414l2.549,9.621
			h0.086l2.396-9.621h3.535l-3.994,14.023h-3.535L941.439,296.155z"/>
		<path fill="#FFFFFF" d="M960.002,292.807h-4.827v2.787h4.623v2.806h-4.623v2.821h4.827v2.805h-8.022v-14.023h8.022V292.807z"/>
		<path fill="#FFFFFF" d="M969.676,304.025h-3.196v-14.023h3.196V304.025z"/>
		<path fill="#FFFFFF" d="M974.912,304.025h-3.195v-14.023h3.195l5.576,8.703h0.033v-8.703h3.195v14.023h-3.195l-5.575-8.703h-0.034
			V304.025z"/>
		<path fill="#FFFFFF" d="M982.818,290.002h3.604l3.535,9.213l3.536-9.213h3.604l-5.882,14.023h-2.516L982.818,290.002z"/>
		<path fill="#FFFFFF" d="M1000.836,304.025h-3.195v-14.023h3.195V304.025z"/>
		<path fill="#FFFFFF" d="M1001.177,290.002h9.859v2.805h-3.332v11.219h-3.195v-11.219h-3.332V290.002z"/>
		<path fill="#FFFFFF" d="M1020.216,292.807h-4.827v2.787h4.623v2.806h-4.623v2.821h4.827v2.805h-8.023v-14.023h8.023V292.807z"/>
	</g>
	<g enable-background="new    ">
		<path fill="#FFFFFF" d="M790.013,310.402l2.924,4.487l2.924-4.487h3.841l-5.167,7.734v6.289h-3.195v-6.289l-5.168-7.734H790.013z"
			/>
		<path fill="#FFFFFF" d="M806.656,310.147c3.893,0,7.054,3.161,7.054,7.258s-3.026,7.275-7.054,7.275
			c-4.148,0-7.072-3.179-7.072-7.275S802.796,310.147,806.656,310.147z M806.656,321.587c2.549,0,3.604-2.091,3.604-4.182
			s-1.123-4.182-3.604-4.182c-2.465,0-3.621,2.091-3.621,4.182S804.038,321.587,806.656,321.587z"/>
		<path fill="#FFFFFF" d="M825.899,319.445c0,3.468-1.903,5.235-5.474,5.235c-3.569,0-5.473-1.768-5.473-5.235v-9.043h3.195v8.108
			c0,2.346,0.714,3.025,2.277,3.025c1.564,0,2.277-0.68,2.277-3.025v-8.108h3.196V319.445z"/>
		<path fill="#FFFFFF" d="M830.71,310.402h9.859v2.805h-3.332v11.219h-3.195v-11.219h-3.332V310.402z"/>
		<path fill="#FFFFFF" d="M847.625,310.147c3.893,0,7.055,3.161,7.055,7.258s-3.025,7.275-7.055,7.275
			c-4.147,0-7.07-3.179-7.07-7.275S843.766,310.147,847.625,310.147z M847.625,321.587c2.551,0,3.604-2.091,3.604-4.182
			s-1.121-4.182-3.604-4.182c-2.465,0-3.62,2.091-3.62,4.182S845.007,321.587,847.625,321.587z"/>
		<path fill="#FFFFFF" d="M866.835,320.465c0,2.754-1.564,4.216-4.369,4.216c-2.006,0-3.28-1.343-3.28-1.343l1.021-2.669
			c0,0,1.002,0.952,1.818,0.952c0.918,0,1.615-0.561,1.615-1.972v-9.247h3.195V320.465z"/>
		<path fill="#FFFFFF" d="M875.148,310.147c3.893,0,7.055,3.161,7.055,7.258s-3.026,7.275-7.055,7.275
			c-4.148,0-7.071-3.179-7.071-7.275S871.289,310.147,875.148,310.147z M875.148,321.587c2.55,0,3.604-2.091,3.604-4.182
			s-1.122-4.182-3.604-4.182c-2.465,0-3.621,2.091-3.621,4.182S872.531,321.587,875.148,321.587z"/>
		<path fill="#FFFFFF" d="M886.81,324.426h-3.195v-14.023h3.195V324.426z"/>
		<path fill="#FFFFFF" d="M892.046,324.426h-3.195v-14.023h3.195l5.575,8.703h0.034v-8.703h3.195v14.023h-3.195l-5.576-8.703h-0.033
			V324.426z"/>
		<path fill="#FFFFFF" d="M918.31,319.445c0,3.468-1.904,5.235-5.474,5.235s-5.474-1.768-5.474-5.235v-9.043h3.195v8.108
			c0,2.346,0.715,3.025,2.278,3.025s2.278-0.68,2.278-3.025v-8.108h3.195V319.445z"/>
		<path fill="#FFFFFF" d="M929.361,311.473l-1.293,2.55c0,0-1.394-0.969-2.838-0.969c-1.088,0-1.666,0.493-1.666,1.258
			c0,0.782,1.326,1.343,2.924,2.023c1.563,0.662,3.28,1.988,3.28,3.824c0,3.349-2.55,4.521-5.286,4.521
			c-3.281,0-5.27-1.853-5.27-1.853l1.598-2.686c0,0,1.869,1.58,3.434,1.58c0.697,0,2.023-0.067,2.023-1.377
			c0-1.02-1.496-1.479-3.162-2.312c-1.684-0.833-2.669-2.142-2.669-3.604c0-2.617,2.312-4.283,4.573-4.283
			C927.558,310.147,929.361,311.473,929.361,311.473z"/>
		<path fill="#FFFFFF" d="M948.689,324.426h-3.434l-1.037-2.805h-5.338l-1.037,2.805h-3.434l5.661-14.023h2.958L948.689,324.426z
			 M941.566,314.736h-0.033l-1.564,4.08h3.162L941.566,314.736z"/>
		<path fill="#FFFFFF" d="M947.535,310.402h9.859v2.805h-3.332v11.219h-3.195v-11.219h-3.332V310.402z"/>
		<path fill="#FFFFFF" d="M969.633,310.147c3.893,0,7.054,3.161,7.054,7.258s-3.025,7.275-7.054,7.275
			c-4.147,0-7.071-3.179-7.071-7.275S965.775,310.147,969.633,310.147z M969.633,321.587c2.55,0,3.604-2.091,3.604-4.182
			s-1.122-4.182-3.604-4.182c-2.465,0-3.62,2.091-3.62,4.182S967.015,321.587,969.633,321.587z"/>
		<path fill="#FFFFFF" d="M988.876,319.445c0,3.468-1.903,5.235-5.473,5.235c-3.57,0-5.474-1.768-5.474-5.235v-9.043h3.195v8.108
			c0,2.346,0.714,3.025,2.278,3.025c1.563,0,2.277-0.68,2.277-3.025v-8.108h3.195V319.445z"/>
		<path fill="#FFFFFF" d="M995.762,310.402c2.601,0,4.573,1.411,4.573,4.164c0,2.108-1.156,3.519-2.873,4.062l4.827,5.797h-4.062
			l-4.283-5.541v5.541h-3.196v-14.023H995.762z M994.318,316.624c1.207,0,2.651-0.085,2.651-1.836s-1.444-1.836-2.651-1.836h-0.374
			v3.672H994.318z"/>
	</g>
	<g enable-background="new    ">
		<path fill="#FFFFFF" d="M842.882,342.021h4.826v2.805h-8.022v-14.023h3.196V342.021z"/>
		<path fill="#FFFFFF" d="M862.329,344.825h-3.434l-1.037-2.805h-5.337l-1.037,2.805h-3.434l5.66-14.023h2.957L862.329,344.825z
			 M855.207,335.136h-0.034l-1.563,4.08h3.161L855.207,335.136z"/>
		<path fill="#FFFFFF" d="M873.65,339.845c0,3.468-1.903,5.235-5.473,5.235c-3.57,0-5.474-1.768-5.474-5.235v-9.043h3.195v8.108
			c0,2.346,0.714,3.025,2.278,3.025c1.563,0,2.277-0.68,2.277-3.025v-8.108h3.195V339.845z"/>
		<path fill="#FFFFFF" d="M878.716,344.825h-3.195v-14.023h3.195l5.576,8.703h0.034v-8.703h3.195v14.023h-3.195l-5.575-8.703h-0.035
			V344.825z"/>
		<path fill="#FFFFFF" d="M899.236,341.068l1.359,2.72c0,0-1.564,1.292-4.606,1.292c-3.96,0-7.599-3.229-7.599-7.241
			c0-4.028,3.621-7.292,7.599-7.292c3.042,0,4.606,1.292,4.606,1.292l-1.359,2.72c0,0-1.123-0.867-2.754-0.867
			c-3.213,0-4.624,2.244-4.624,4.113c0,1.887,1.411,4.131,4.624,4.131C898.113,341.936,899.236,341.068,899.236,341.068z"/>
		<path fill="#FFFFFF" d="M905.015,344.825h-3.195v-14.023h3.195v5.592h4.522v-5.592h3.195v14.023h-3.195v-5.626h-4.522V344.825z"/>
		<path fill="#FFFFFF" d="M923.478,330.802c3.842,0,7.07,2.924,7.07,7.003c0,4.097-3.213,7.021-7.07,7.021h-4.062v-14.023H923.478z
			 M923.103,341.97c2.363,0,3.979-1.802,3.995-4.147c0-2.346-1.614-4.165-3.995-4.165h-0.492v8.312H923.103z"/>
		<path fill="#FFFFFF" d="M944.744,344.825h-3.434l-1.037-2.805h-5.338l-1.037,2.805h-3.434l5.661-14.023h2.958L944.744,344.825z
			 M937.621,335.136h-0.033l-1.564,4.08h3.162L937.621,335.136z"/>
		<path fill="#FFFFFF" d="M946.07,330.802l2.924,4.487l2.924-4.487h3.842l-5.168,7.734v6.289h-3.195v-6.289l-5.167-7.734H946.07z"/>
	</g>
	<g enable-background="new    ">
		<path fill="#FFFFFF" d="M173.312,455.769h-3.434l-1.037-2.805h-5.337l-1.037,2.805h-3.434l5.661-14.023h2.958L173.312,455.769z
			 M166.19,446.079h-0.034l-1.564,4.08h3.162L166.19,446.079z"/>
		<path fill="#FFFFFF" d="M177.054,455.769h-3.196v-14.023h3.196l5.575,8.703h0.034v-8.703h3.195v14.023h-3.195l-5.576-8.703h-0.034
			V455.769z"/>
		<path fill="#FFFFFF" d="M191.962,441.745c3.842,0,7.071,2.924,7.071,7.003c0,4.097-3.213,7.021-7.071,7.021h-4.062v-14.023
			H191.962z M191.588,452.913c2.363,0,3.978-1.802,3.995-4.147c0-2.346-1.615-4.165-3.995-4.165h-0.493v8.312H191.588z"/>
		<path fill="#FFFFFF" d="M212.158,447.898l-2.244,7.87h-3.553l-3.995-14.023h3.553l2.396,9.621h0.085l2.55-9.621h2.414l2.55,9.621
			h0.085l2.397-9.621h3.536l-3.995,14.023h-3.536L212.158,447.898z"/>
		<path fill="#FFFFFF" d="M230.721,444.55h-4.828v2.787h4.624v2.806h-4.624v2.821h4.828v2.805h-8.023v-14.023h8.023V444.55z"/>
		<path fill="#FFFFFF" d="M245.222,444.55h-4.827v2.787h4.623v2.806h-4.623v2.821h4.827v2.805h-8.023v-14.023h8.023V444.55z"/>
		<path fill="#FFFFFF" d="M250.254,455.769h-3.195v-14.023h3.195l5.576,8.703h0.034v-8.703h3.195v14.023h-3.195l-5.576-8.703h-0.034
			V455.769z"/>
		<path fill="#FFFFFF" d="M270.772,452.012l1.36,2.72c0,0-1.564,1.292-4.606,1.292c-3.96,0-7.598-3.229-7.598-7.241
			c0-4.028,3.621-7.292,7.598-7.292c3.042,0,4.606,1.292,4.606,1.292l-1.36,2.72c0,0-1.122-0.867-2.754-0.867
			c-3.212,0-4.624,2.244-4.624,4.113c0,1.887,1.411,4.131,4.624,4.131C269.65,452.879,270.772,452.012,270.772,452.012z"/>
		<path fill="#FFFFFF" d="M279.8,441.49c3.893,0,7.054,3.161,7.054,7.258s-3.026,7.275-7.054,7.275
			c-4.148,0-7.071-3.179-7.071-7.275S275.941,441.49,279.8,441.49z M279.8,452.93c2.55,0,3.604-2.091,3.604-4.182
			s-1.122-4.182-3.604-4.182c-2.465,0-3.621,2.091-3.621,4.182S277.182,452.93,279.8,452.93z"/>
		<path fill="#FFFFFF" d="M299.043,450.788c0,3.468-1.904,5.235-5.474,5.235c-3.569,0-5.473-1.768-5.473-5.235v-9.043h3.195v8.108
			c0,2.346,0.714,3.025,2.278,3.025c1.564,0,2.278-0.68,2.278-3.025v-8.108h3.196V450.788z"/>
		<path fill="#FFFFFF" d="M305.928,441.745c2.601,0,4.573,1.411,4.573,4.164c0,2.108-1.156,3.519-2.873,4.062l4.827,5.797h-4.062
			l-4.284-5.541v5.541h-3.195v-14.023H305.928z M304.483,447.967c1.207,0,2.652-0.085,2.652-1.836s-1.445-1.836-2.652-1.836h-0.374
			v3.672H304.483z"/>
		<path fill="#FFFFFF" d="M325.869,455.769h-3.434l-1.037-2.805h-5.337l-1.037,2.805h-3.434l5.661-14.023h2.958L325.869,455.769z
			 M318.746,446.079h-0.034l-1.564,4.08h3.162L318.746,446.079z"/>
		<path fill="#FFFFFF" d="M339.095,450.958c-0.765,3.553-3.723,5.065-6.477,5.065c-3.773,0-6.833-3.247-6.833-7.258
			c0-4.029,2.89-7.275,6.833-7.275c2.465,0,4.182,0.918,5.406,2.396l-2.091,2.295c-0.816-1.309-1.887-1.802-3.128-1.802
			c-1.972,0-3.569,1.955-3.569,4.386c0,2.38,1.598,4.317,3.569,4.317c1.53,0,3.043-0.986,3.043-2.703h-3.23v-2.465h6.477V450.958z"
			/>
		<path fill="#FFFFFF" d="M348.53,444.55h-4.828v2.787h4.624v2.806h-4.624v2.821h4.828v2.805h-8.023v-14.023h8.023V444.55z"/>
		<path fill="#FFFFFF" d="M355.789,441.745l2.924,4.487l2.924-4.487h3.841l-5.167,7.734v6.289h-3.195v-6.289l-5.167-7.734H355.789z"
			/>
		<path fill="#FFFFFF" d="M372.432,441.49c3.893,0,7.054,3.161,7.054,7.258s-3.026,7.275-7.054,7.275
			c-4.148,0-7.071-3.179-7.071-7.275S368.573,441.49,372.432,441.49z M372.432,452.93c2.55,0,3.604-2.091,3.604-4.182
			s-1.122-4.182-3.604-4.182c-2.465,0-3.621,2.091-3.621,4.182S369.814,452.93,372.432,452.93z"/>
		<path fill="#FFFFFF" d="M391.675,450.788c0,3.468-1.904,5.235-5.474,5.235c-3.569,0-5.473-1.768-5.473-5.235v-9.043h3.195v8.108
			c0,2.346,0.714,3.025,2.278,3.025s2.278-0.68,2.278-3.025v-8.108h3.196V450.788z"/>
	</g>
	<g enable-background="new    ">
		<path fill="#FFFFFF" d="M134.809,462.145h9.859v2.805h-3.332v11.219h-3.195v-11.219h-3.332V462.145z"/>
		<path fill="#FFFFFF" d="M151.723,461.89c3.893,0,7.054,3.161,7.054,7.258s-3.026,7.275-7.054,7.275
			c-4.148,0-7.071-3.179-7.071-7.275S147.864,461.89,151.723,461.89z M151.723,473.329c2.55,0,3.604-2.091,3.604-4.182
			s-1.122-4.182-3.604-4.182c-2.465,0-3.621,2.091-3.621,4.182S149.105,473.329,151.723,473.329z"/>
		<path fill="#FFFFFF" d="M174.502,472.411l1.36,2.72c0,0-1.564,1.292-4.606,1.292c-3.96,0-7.598-3.229-7.598-7.241
			c0-4.028,3.621-7.292,7.598-7.292c3.042,0,4.606,1.292,4.606,1.292l-1.36,2.72c0,0-1.122-0.867-2.754-0.867
			c-3.212,0-4.624,2.244-4.624,4.113c0,1.887,1.411,4.131,4.624,4.131C173.38,473.278,174.502,472.411,174.502,472.411z"/>
		<path fill="#FFFFFF" d="M183.53,461.89c3.893,0,7.054,3.161,7.054,7.258s-3.026,7.275-7.054,7.275
			c-4.148,0-7.071-3.179-7.071-7.275S179.671,461.89,183.53,461.89z M183.53,473.329c2.55,0,3.604-2.091,3.604-4.182
			s-1.122-4.182-3.604-4.182c-2.465,0-3.621,2.091-3.621,4.182S180.912,473.329,183.53,473.329z"/>
		<path fill="#FFFFFF" d="M202.926,467.855h-0.085l-2.873,8.228h-1.904l-2.873-8.228h-0.085l-0.663,8.312h-3.196l1.258-14.023h3.4
			l3.11,8.091l3.111-8.091h3.4l1.258,14.023h-3.196L202.926,467.855z"/>
		<path fill="#FFFFFF" d="M216.102,464.949h-4.827v2.787h4.623v2.806h-4.623v2.821h4.827v2.805h-8.023v-14.023h8.023V464.949z"/>
		<path fill="#FFFFFF" d="M220.879,462.145h9.859v2.805h-3.332v11.219h-3.195v-11.219h-3.332V462.145z"/>
		<path fill="#FFFFFF" d="M237.794,461.89c3.893,0,7.054,3.161,7.054,7.258s-3.026,7.275-7.054,7.275
			c-4.148,0-7.071-3.179-7.071-7.275S233.935,461.89,237.794,461.89z M237.794,473.329c2.55,0,3.604-2.091,3.604-4.182
			s-1.122-4.182-3.604-4.182c-2.465,0-3.621,2.091-3.621,4.182S235.176,473.329,237.794,473.329z"/>
		<path fill="#FFFFFF" d="M257.344,461.89c3.893,0,7.054,3.161,7.054,7.258s-3.026,7.275-7.054,7.275
			c-4.148,0-7.071-3.179-7.071-7.275S253.485,461.89,257.344,461.89z M257.344,473.329c2.55,0,3.604-2.091,3.604-4.182
			s-1.122-4.182-3.604-4.182c-2.465,0-3.621,2.091-3.621,4.182S254.726,473.329,257.344,473.329z"/>
		<path fill="#FFFFFF" d="M276.587,471.188c0,3.468-1.904,5.235-5.474,5.235c-3.569,0-5.473-1.768-5.473-5.235v-9.043h3.195v8.108
			c0,2.346,0.714,3.025,2.278,3.025c1.564,0,2.278-0.68,2.278-3.025v-8.108h3.196V471.188z"/>
		<path fill="#FFFFFF" d="M283.472,462.145c2.601,0,4.573,1.411,4.573,4.164c0,2.108-1.156,3.519-2.873,4.062l4.827,5.797h-4.062
			l-4.284-5.541v5.541h-3.195v-14.023H283.472z M282.027,468.366c1.207,0,2.652-0.085,2.652-1.836s-1.445-1.836-2.652-1.836h-0.374
			v3.672H282.027z"/>
		<path fill="#FFFFFF" d="M304.45,463.215l-1.292,2.55c0,0-1.394-0.969-2.839-0.969c-1.088,0-1.666,0.493-1.666,1.258
			c0,0.782,1.326,1.343,2.923,2.023c1.564,0.662,3.281,1.988,3.281,3.824c0,3.349-2.55,4.521-5.286,4.521
			c-3.281,0-5.27-1.853-5.27-1.853l1.598-2.686c0,0,1.87,1.58,3.434,1.58c0.697,0,2.023-0.067,2.023-1.377
			c0-1.02-1.496-1.479-3.162-2.312c-1.683-0.833-2.669-2.142-2.669-3.604c0-2.617,2.312-4.283,4.573-4.283
			C302.648,461.89,304.45,463.215,304.45,463.215z"/>
		<path fill="#FFFFFF" d="M304.655,462.145h9.859v2.805h-3.332v11.219h-3.196v-11.219h-3.332V462.145z"/>
		<path fill="#FFFFFF" d="M327.638,476.168h-3.434l-1.037-2.805h-5.337l-1.037,2.805h-3.434l5.661-14.023h2.958L327.638,476.168z
			 M320.515,466.479h-0.034l-1.564,4.08h3.162L320.515,466.479z"/>
		<path fill="#FFFFFF" d="M333.197,462.145c2.601,0,4.573,1.411,4.573,4.164c0,2.108-1.156,3.519-2.873,4.062l4.827,5.797h-4.062
			l-4.283-5.541v5.541h-3.196v-14.023H333.197z M331.752,468.366c1.207,0,2.652-0.085,2.652-1.836s-1.445-1.836-2.652-1.836h-0.374
			v3.672H331.752z"/>
		<path fill="#FFFFFF" d="M338.791,462.145h9.859v2.805h-3.332v11.219h-3.196v-11.219h-3.332V462.145z"/>
		<path fill="#FFFFFF" d="M360.583,471.188c0,3.468-1.904,5.235-5.474,5.235c-3.569,0-5.473-1.768-5.473-5.235v-9.043h3.195v8.108
			c0,2.346,0.714,3.025,2.278,3.025s2.278-0.68,2.278-3.025v-8.108h3.196V471.188z"/>
		<path fill="#FFFFFF" d="M367.571,462.145c2.737,0,4.793,1.411,4.793,4.317c0,2.89-2.057,4.505-4.793,4.505h-1.92v5.201h-3.196
			v-14.023H367.571z M366.551,468.417c1.258,0,2.448-0.425,2.448-1.854c0-1.444-1.19-1.869-2.448-1.869h-0.901v3.723H366.551z"/>
		<path fill="#FFFFFF" d="M382.48,462.145c3.842,0,7.071,2.924,7.071,7.003c0,4.097-3.213,7.021-7.071,7.021h-4.062v-14.023H382.48z
			 M382.106,473.312c2.363,0,3.978-1.802,3.995-4.147c0-2.346-1.615-4.165-3.995-4.165h-0.493v8.312H382.106z"/>
		<path fill="#FFFFFF" d="M403.746,476.168h-3.434l-1.037-2.805h-5.337l-1.037,2.805h-3.434l5.661-14.023h2.958L403.746,476.168z
			 M396.624,466.479h-0.034l-1.564,4.08h3.162L396.624,466.479z"/>
		<path fill="#FFFFFF" d="M405.073,462.145l2.924,4.487l2.924-4.487h3.841l-5.167,7.734v6.289h-3.195v-6.289l-5.167-7.734H405.073z"
			/>
	</g>
	<g enable-background="new    ">
		<path fill="#FFFFFF" d="M165.875,496.568h-3.196v-14.023h3.196V496.568z"/>
		<path fill="#FFFFFF" d="M171.111,496.568h-3.195v-14.023h3.195l5.576,8.703h0.034v-8.703h3.195v14.023h-3.195l-5.576-8.703h-0.034
			V496.568z"/>
		<path fill="#FFFFFF" d="M196.27,492.812l1.36,2.72c0,0-1.564,1.292-4.606,1.292c-3.96,0-7.598-3.229-7.598-7.241
			c0-4.028,3.621-7.292,7.598-7.292c3.042,0,4.606,1.292,4.606,1.292l-1.36,2.72c0,0-1.122-0.867-2.754-0.867
			c-3.212,0-4.624,2.244-4.624,4.113c0,1.887,1.411,4.131,4.624,4.131C195.148,493.679,196.27,492.812,196.27,492.812z"/>
		<path fill="#FFFFFF" d="M205.298,482.29c3.893,0,7.054,3.161,7.054,7.258s-3.026,7.275-7.054,7.275
			c-4.148,0-7.071-3.179-7.071-7.275S201.439,482.29,205.298,482.29z M205.298,493.729c2.55,0,3.604-2.091,3.604-4.182
			s-1.122-4.182-3.604-4.182c-2.465,0-3.621,2.091-3.621,4.182S202.68,493.729,205.298,493.729z"/>
		<path fill="#FFFFFF" d="M216.959,493.764h4.828v2.805h-8.023v-14.023h3.195V493.764z"/>
		<path fill="#FFFFFF" d="M226.565,493.764h4.827v2.805h-8.023v-14.023h3.196V493.764z"/>
		<path fill="#FFFFFF" d="M246.012,496.568h-3.434l-1.037-2.805h-5.337l-1.037,2.805h-3.434l5.661-14.023h2.958L246.012,496.568z
			 M238.889,486.879h-0.034l-1.564,4.08h3.162L238.889,486.879z"/>
		<path fill="#FFFFFF" d="M250.908,482.545c2.414,0,4.317,0.9,4.317,3.569c0,1.292-0.561,2.396-1.751,3.009
			c1.751,0.306,2.992,1.275,2.992,3.536c0,2.312-1.683,3.909-4.589,3.909h-5.32v-14.023H250.908z M250.007,488.035
			c1.377,0,2.125-0.425,2.125-1.598c0-1.003-0.731-1.428-2.125-1.428h-0.255v3.025H250.007z M250.755,494.104
			c1.513,0,2.346-0.459,2.346-1.563c0-1.292-0.833-1.751-2.346-1.751h-1.002v3.314H250.755z"/>
		<path fill="#FFFFFF" d="M264.321,482.29c3.893,0,7.054,3.161,7.054,7.258s-3.026,7.275-7.054,7.275
			c-4.148,0-7.071-3.179-7.071-7.275S260.462,482.29,264.321,482.29z M264.321,493.729c2.55,0,3.604-2.091,3.604-4.182
			s-1.122-4.182-3.604-4.182c-2.465,0-3.621,2.091-3.621,4.182S261.703,493.729,264.321,493.729z"/>
		<path fill="#FFFFFF" d="M277.802,482.545c2.601,0,4.573,1.411,4.573,4.164c0,2.108-1.156,3.519-2.873,4.062l4.827,5.797h-4.062
			l-4.284-5.541v5.541h-3.195v-14.023H277.802z M276.357,488.767c1.207,0,2.652-0.085,2.652-1.836s-1.445-1.836-2.652-1.836h-0.374
			v3.672H276.357z"/>
		<path fill="#FFFFFF" d="M297.742,496.568h-3.434l-1.037-2.805h-5.337l-1.037,2.805h-3.434l5.661-14.023h2.958L297.742,496.568z
			 M290.62,486.879h-0.034l-1.564,4.08h3.162L290.62,486.879z"/>
		<path fill="#FFFFFF" d="M296.587,482.545h9.859v2.805h-3.332v11.219h-3.196V485.35h-3.332V482.545z"/>
		<path fill="#FFFFFF" d="M310.799,496.568h-3.196v-14.023h3.196V496.568z"/>
		<path fill="#FFFFFF" d="M319.282,482.29c3.893,0,7.054,3.161,7.054,7.258s-3.026,7.275-7.054,7.275
			c-4.148,0-7.071-3.179-7.071-7.275S315.423,482.29,319.282,482.29z M319.282,493.729c2.55,0,3.604-2.091,3.604-4.182
			s-1.122-4.182-3.604-4.182c-2.465,0-3.621,2.091-3.621,4.182S316.664,493.729,319.282,493.729z"/>
		<path fill="#FFFFFF" d="M330.944,496.568h-3.196v-14.023h3.196l5.575,8.703h0.034v-8.703h3.195v14.023h-3.195l-5.576-8.703h-0.034
			V496.568z"/>
		<path fill="#FFFFFF" d="M353.502,488.698l-2.244,7.87h-3.553l-3.995-14.023h3.553l2.396,9.621h0.085l2.55-9.621h2.414l2.549,9.621
			h0.085l2.397-9.621h3.536l-3.995,14.023h-3.536L353.502,488.698z"/>
		<path fill="#FFFFFF" d="M367.239,496.568h-3.196v-14.023h3.196V496.568z"/>
		<path fill="#FFFFFF" d="M367.579,482.545h9.859v2.805h-3.332v11.219h-3.195V485.35h-3.332V482.545z"/>
		<path fill="#FFFFFF" d="M381.791,496.568h-3.196v-14.023h3.196v5.592h4.521v-5.592h3.195v14.023h-3.195v-5.626h-4.521V496.568z"/>
	</g>
	<g enable-background="new    ">
		<path fill="#FFFFFF" d="M221.941,509.098l-2.244,7.87h-3.553l-3.995-14.023h3.553l2.396,9.621h0.085l2.55-9.621h2.414l2.549,9.621
			h0.085l2.397-9.621h3.536l-3.995,14.023h-3.536L221.941,509.098z"/>
		<path fill="#FFFFFF" d="M235.031,507.993c1.173,0,2.142,0.391,2.855,1.088v-0.833h3.009v8.72h-2.975v-0.986h-0.034
			c-0.646,0.715-1.666,1.241-2.855,1.241c-2.55,0-4.334-2.057-4.334-4.606S232.481,507.993,235.031,507.993z M235.932,514.656
			c1.173,0,2.023-0.851,2.023-2.04c0-1.207-0.901-2.057-2.023-2.057c-1.139,0-2.04,0.85-2.04,2.057
			C233.892,513.806,234.708,514.656,235.932,514.656z"/>
		<path fill="#FFFFFF" d="M242.937,508.248h3.009v1.258h0.034c0,0,0.952-1.513,2.669-1.513c1.122,0,1.904,0.543,1.904,0.543
			l-1.258,2.55c0,0-0.561-0.476-1.564-0.476c-1.564,0-1.785,1.547-1.785,1.768v4.59h-3.009V508.248z"/>
		<path fill="#FFFFFF" d="M254.717,516.968l-4.674-8.72h3.468l2.125,4.708l2.091-4.708h2.074l2.091,4.708l2.125-4.708h3.467
			l-4.674,8.72h-2.04l-2.005-4.505l-2.006,4.505H254.717z"/>
		<path fill="#FFFFFF" d="M271.496,504.644c0,0.986-0.799,1.785-1.785,1.785s-1.785-0.799-1.785-1.785
			c0-0.985,0.799-1.784,1.785-1.784S271.496,503.658,271.496,504.644z M268.164,516.968h3.009v-8.72h-3.009V516.968z"/>
		<path fill="#FFFFFF" d="M275.864,512.6c0,1.206,0.935,2.158,2.074,2.158c0.901,0,1.461-0.408,1.461-0.408l1.02,2.091
			c0,0-0.986,0.782-2.924,0.782c-2.516,0-4.827-2.04-4.827-4.59c0-2.566,2.294-4.64,4.827-4.64c1.938,0,2.924,0.815,2.924,0.815
			l-1.02,2.057c0,0-0.561-0.408-1.461-0.408C276.799,510.457,275.864,511.409,275.864,512.6z"/>
		<path fill="#FFFFFF" d="M287.458,512.412l4.555,4.556h-3.875l-3.484-3.484v3.484h-3.009V502.35h3.009v8.94l3.042-3.042h3.91
			L287.458,512.412z"/>
		<path fill="#FFFFFF" d="M290.927,502.944h9.859v2.805h-3.332v11.219h-3.196v-11.219h-3.332V502.944z"/>
		<path fill="#FFFFFF" d="M309.966,505.749h-4.828v2.787h4.624v2.806h-4.624v2.821h4.828v2.805h-8.023v-14.023h8.023V505.749z"/>
		<path fill="#FFFFFF" d="M322.019,513.211l1.36,2.72c0,0-1.564,1.292-4.606,1.292c-3.96,0-7.598-3.229-7.598-7.241
			c0-4.028,3.621-7.292,7.598-7.292c3.042,0,4.606,1.292,4.606,1.292l-1.36,2.72c0,0-1.122-0.867-2.754-0.867
			c-3.212,0-4.624,2.244-4.624,4.113c0,1.887,1.411,4.131,4.624,4.131C320.896,514.078,322.019,513.211,322.019,513.211z"/>
		<path fill="#FFFFFF" d="M327.799,516.968h-3.196v-14.023h3.196v5.592h4.521v-5.592h3.195v14.023h-3.195v-5.626h-4.521V516.968z"/>
	</g>
	<g enable-background="new    ">
		<path fill="#FFFFFF" d="M797.009,615.524h9.859v2.805h-3.332v11.219h-3.195v-11.219h-3.332V615.524z"/>
		<path fill="#FFFFFF" d="M811.221,629.548h-3.196v-14.023h3.196v5.592h4.521v-5.592h3.195v14.023h-3.195v-5.626h-4.521V629.548z"/>
		<path fill="#FFFFFF" d="M829.002,618.329h-4.827v2.787h4.623v2.806h-4.623v2.821h4.827v2.805h-8.022v-14.023h8.022V618.329z"/>
		<path fill="#FFFFFF" d="M834.035,629.548h-3.195v-14.023h3.195l5.575,8.703h0.034v-8.703h3.195v14.023h-3.195l-5.576-8.703h-0.033
			V629.548z"/>
		<path fill="#FFFFFF" d="M850.303,615.524l2.924,4.487l2.924-4.487h3.841l-5.167,7.734v6.289h-3.195v-6.289l-5.167-7.734H850.303z"
			/>
		<path fill="#FFFFFF" d="M866.947,615.27c3.893,0,7.054,3.161,7.054,7.258s-3.026,7.275-7.054,7.275
			c-4.148,0-7.072-3.179-7.072-7.275S863.087,615.27,866.947,615.27z M866.947,626.709c2.549,0,3.604-2.091,3.604-4.182
			s-1.123-4.182-3.604-4.182c-2.465,0-3.621,2.091-3.621,4.182S864.329,626.709,866.947,626.709z"/>
		<path fill="#FFFFFF" d="M886.189,624.567c0,3.468-1.903,5.235-5.473,5.235c-3.57,0-5.474-1.768-5.474-5.235v-9.043h3.195v8.108
			c0,2.346,0.714,3.025,2.278,3.025c1.563,0,2.277-0.68,2.277-3.025v-8.108h3.195V624.567z"/>
		<path fill="#FFFFFF" d="M903.631,621.235h-0.085l-2.873,8.228h-1.903l-2.873-8.228h-0.085l-0.662,8.312h-3.196l1.258-14.023h3.399
			l3.111,8.091l3.11-8.091h3.399l1.258,14.023h-3.195L903.631,621.235z"/>
		<path fill="#FFFFFF" d="M921.566,629.548h-3.434l-1.037-2.805h-5.338l-1.037,2.805h-3.434l5.661-14.023h2.958L921.566,629.548z
			 M914.443,619.858h-0.033l-1.564,4.08h3.162L914.443,619.858z"/>
		<path fill="#FFFFFF" d="M922.893,615.524l2.924,4.487l2.924-4.487h3.841l-5.167,7.734v6.289h-3.195v-6.289l-5.167-7.734H922.893z"
			/>
		<path fill="#FFFFFF" d="M942.085,615.524c2.414,0,4.318,0.9,4.318,3.569c0,1.292-0.562,2.396-1.752,3.009
			c1.752,0.306,2.992,1.275,2.992,3.536c0,2.312-1.683,3.909-4.59,3.909h-5.32v-14.023H942.085z M941.185,621.015
			c1.377,0,2.125-0.425,2.125-1.598c0-1.003-0.731-1.428-2.125-1.428h-0.255v3.025H941.185z M941.933,627.083
			c1.513,0,2.346-0.459,2.346-1.563c0-1.292-0.833-1.751-2.346-1.751h-1.003v3.314H941.933z"/>
		<path fill="#FFFFFF" d="M957.08,618.329h-4.828v2.787h4.624v2.806h-4.624v2.821h4.828v2.805h-8.023v-14.023h8.023V618.329z"/>
		<path fill="#FFFFFF" d="M966.752,629.548h-3.196v-14.023h3.196V629.548z"/>
		<path fill="#FFFFFF" d="M971.988,629.548h-3.195v-14.023h3.195l5.576,8.703h0.033v-8.703h3.195v14.023h-3.195l-5.575-8.703h-0.034
			V629.548z"/>
		<path fill="#FFFFFF" d="M979.894,615.524h3.604l3.535,9.213l3.536-9.213h3.604l-5.882,14.023h-2.516L979.894,615.524z"/>
		<path fill="#FFFFFF" d="M997.914,629.548h-3.195v-14.023h3.195V629.548z"/>
		<path fill="#FFFFFF" d="M998.253,615.524h9.859v2.805h-3.332v11.219h-3.195v-11.219h-3.332V615.524z"/>
		<path fill="#FFFFFF" d="M1017.292,618.329h-4.827v2.787h4.623v2.806h-4.623v2.821h4.827v2.805h-8.023v-14.023h8.023V618.329z"/>
		<path fill="#FFFFFF" d="M1023.192,615.524c3.842,0,7.071,2.924,7.071,7.003c0,4.097-3.213,7.021-7.071,7.021h-4.062v-14.023
			H1023.192z M1022.818,626.692c2.363,0,3.978-1.802,3.994-4.147c0-2.346-1.614-4.165-3.994-4.165h-0.493v8.312H1022.818z"/>
	</g>
	<g enable-background="new    ">
		<path fill="#FFFFFF" d="M852.259,635.924h9.859v2.805h-3.332v11.219h-3.195v-11.219h-3.332V635.924z"/>
		<path fill="#FFFFFF" d="M869.173,635.669c3.893,0,7.055,3.161,7.055,7.258s-3.025,7.275-7.055,7.275
			c-4.147,0-7.07-3.179-7.07-7.275S865.315,635.669,869.173,635.669z M869.173,647.108c2.551,0,3.604-2.091,3.604-4.182
			s-1.121-4.182-3.604-4.182c-2.465,0-3.62,2.091-3.62,4.182S866.556,647.108,869.173,647.108z"/>
		<path fill="#FFFFFF" d="M885.477,649.947h-3.196v-14.023h3.196V649.947z"/>
		<path fill="#FFFFFF" d="M890.713,649.947h-3.196v-14.023h3.196l5.575,8.703h0.034v-8.703h3.195v14.023h-3.195l-5.575-8.703h-0.034
			V649.947z"/>
		<path fill="#FFFFFF" d="M899.859,635.924h9.859v2.805h-3.332v11.219h-3.195v-11.219h-3.332V635.924z"/>
		<path fill="#FFFFFF" d="M918.898,638.729h-4.827v2.787h4.623v2.806h-4.623v2.821h4.827v2.805h-8.023v-14.023h8.023V638.729z"/>
		<path fill="#FFFFFF" d="M925.75,635.924c2.601,0,4.572,1.411,4.572,4.164c0,2.108-1.156,3.519-2.873,4.062l4.828,5.797h-4.062
			l-4.284-5.541v5.541h-3.195v-14.023H925.75z M924.304,642.146c1.207,0,2.652-0.085,2.652-1.836s-1.445-1.836-2.652-1.836h-0.374
			v3.672H924.304z"/>
		<path fill="#FFFFFF" d="M931.411,635.924h3.604l3.536,9.213l3.535-9.213h3.604l-5.881,14.023h-2.516L931.411,635.924z"/>
		<path fill="#FFFFFF" d="M949.43,649.947h-3.195v-14.023h3.195V649.947z"/>
		<path fill="#FFFFFF" d="M959.494,638.729h-4.827v2.787h4.623v2.806h-4.623v2.821h4.827v2.805h-8.023v-14.023h8.023V638.729z"/>
		<path fill="#FFFFFF" d="M969.847,642.077l-2.244,7.87h-3.553l-3.994-14.023h3.553l2.396,9.621h0.084l2.551-9.621h2.413l2.55,9.621
			h0.085l2.397-9.621h3.535l-3.994,14.023h-3.536L969.847,642.077z"/>
	</g>
	<g enable-background="new    ">
		<path fill="#FFFFFF" d="M874.623,670.348h-3.196v-14.023h3.196V670.348z"/>
		<path fill="#FFFFFF" d="M879.857,670.348h-3.195v-14.023h3.195l5.576,8.703h0.034v-8.703h3.195v14.023h-3.195l-5.575-8.703h-0.035
			V670.348z"/>
		<path fill="#FFFFFF" d="M902.416,662.478l-2.243,7.87h-3.553l-3.995-14.023h3.553l2.396,9.621h0.086l2.549-9.621h2.414l2.55,9.621
			h0.085l2.396-9.621h3.536l-3.995,14.023h-3.535L902.416,662.478z"/>
		<path fill="#FFFFFF" d="M920.98,659.129h-4.828v2.787h4.625v2.806h-4.625v2.821h4.828v2.805h-8.023v-14.023h8.023V659.129z"/>
		<path fill="#FFFFFF" d="M930.839,659.129h-4.826v2.787h4.623v2.806h-4.623v2.821h4.826v2.805h-8.022v-14.023h8.022V659.129z"/>
		<path fill="#FFFFFF" d="M941.039,670.348l-5.166-5.949v5.949h-3.196v-14.023h3.196v5.729l4.81-5.729h3.876l-5.644,6.646
			l6.527,7.377H941.039z"/>
		<path fill="#FFFFFF" d="M960.777,664.585v2.805h-1.633v2.958h-2.991v-2.958h-6.901v-0.951l6.73-10.114h3.162v8.261H960.777z
			 M956.119,660.591l-2.498,3.994h2.532v-3.994H956.119z"/>
	</g>
	<g enable-background="new    ">
		<path d="M420.12,819.191h-3.434l-1.037-2.805h-5.337l-1.037,2.805h-3.434l5.661-14.023h2.958L420.12,819.191z M412.998,809.502
			h-0.034l-1.564,4.08h3.162L412.998,809.502z"/>
		<path d="M423.861,819.191h-3.196v-14.023h3.196l5.575,8.703h0.034v-8.703h3.195v14.023h-3.195l-5.576-8.703h-0.034V819.191z"/>
		<path d="M438.77,805.168c3.842,0,7.071,2.924,7.071,7.003c0,4.097-3.213,7.021-7.071,7.021h-4.062v-14.023H438.77z
			 M438.396,816.336c2.363,0,3.978-1.802,3.995-4.147c0-2.346-1.615-4.165-3.995-4.165h-0.493v8.312H438.396z"/>
		<path d="M455.09,819.191h-3.196v-14.023h3.196V819.191z"/>
		<path d="M465.238,807.973h-4.913v2.787h4.539v2.806h-4.539v5.626h-3.195v-14.023h8.108V807.973z"/>
		<path d="M480.589,806.238l-1.292,2.55c0,0-1.394-0.969-2.839-0.969c-1.088,0-1.666,0.493-1.666,1.258
			c0,0.782,1.326,1.343,2.923,2.023c1.564,0.662,3.281,1.988,3.281,3.824c0,3.349-2.55,4.521-5.286,4.521
			c-3.281,0-5.27-1.853-5.27-1.853l1.598-2.686c0,0,1.87,1.58,3.434,1.58c0.697,0,2.023-0.067,2.023-1.377
			c0-1.02-1.496-1.479-3.162-2.312c-1.683-0.833-2.669-2.142-2.669-3.604c0-2.617,2.312-4.283,4.573-4.283
			C478.787,804.913,480.589,806.238,480.589,806.238z"/>
		<path d="M493.271,814.211c0,3.468-1.904,5.235-5.474,5.235c-3.569,0-5.473-1.768-5.473-5.235v-9.043h3.195v8.108
			c0,2.346,0.714,3.025,2.278,3.025c1.564,0,2.278-0.68,2.278-3.025v-8.108h3.196V814.211z"/>
		<path d="M504.813,815.435l1.36,2.72c0,0-1.564,1.292-4.606,1.292c-3.96,0-7.598-3.229-7.598-7.241
			c0-4.028,3.621-7.292,7.598-7.292c3.042,0,4.606,1.292,4.606,1.292l-1.36,2.72c0,0-1.122-0.867-2.754-0.867
			c-3.212,0-4.624,2.244-4.624,4.113c0,1.887,1.411,4.131,4.624,4.131C503.691,816.302,504.813,815.435,504.813,815.435z"/>
		<path d="M517.614,815.435l1.36,2.72c0,0-1.564,1.292-4.606,1.292c-3.96,0-7.598-3.229-7.598-7.241
			c0-4.028,3.621-7.292,7.598-7.292c3.042,0,4.606,1.292,4.606,1.292l-1.36,2.72c0,0-1.122-0.867-2.754-0.867
			c-3.212,0-4.624,2.244-4.624,4.113c0,1.887,1.411,4.131,4.624,4.131C516.492,816.302,517.614,815.435,517.614,815.435z"/>
		<path d="M528.222,807.973h-4.828v2.787h4.624v2.806h-4.624v2.821h4.828v2.805h-8.023v-14.023h8.023V807.973z"/>
		<path d="M539.578,806.238l-1.292,2.55c0,0-1.394-0.969-2.839-0.969c-1.088,0-1.666,0.493-1.666,1.258
			c0,0.782,1.326,1.343,2.923,2.023c1.564,0.662,3.281,1.988,3.281,3.824c0,3.349-2.55,4.521-5.286,4.521
			c-3.281,0-5.27-1.853-5.27-1.853l1.598-2.686c0,0,1.87,1.58,3.434,1.58c0.697,0,2.023-0.067,2.023-1.377
			c0-1.02-1.496-1.479-3.162-2.312c-1.683-0.833-2.669-2.142-2.669-3.604c0-2.617,2.312-4.283,4.573-4.283
			C537.776,804.913,539.578,806.238,539.578,806.238z"/>
		<path d="M550.662,806.238l-1.292,2.55c0,0-1.394-0.969-2.839-0.969c-1.088,0-1.666,0.493-1.666,1.258
			c0,0.782,1.326,1.343,2.923,2.023c1.564,0.662,3.281,1.988,3.281,3.824c0,3.349-2.55,4.521-5.286,4.521
			c-3.281,0-5.27-1.853-5.27-1.853l1.598-2.686c0,0,1.87,1.58,3.434,1.58c0.697,0,2.023-0.067,2.023-1.377
			c0-1.02-1.496-1.479-3.162-2.312c-1.683-0.833-2.669-2.142-2.669-3.604c0-2.617,2.312-4.283,4.573-4.283
			C548.86,804.913,550.662,806.238,550.662,806.238z"/>
		<path d="M560.675,807.973h-4.912v2.787h4.538v2.806h-4.538v5.626h-3.196v-14.023h8.108V807.973z"/>
		<path d="M572.983,814.211c0,3.468-1.904,5.235-5.474,5.235c-3.569,0-5.473-1.768-5.473-5.235v-9.043h3.195v8.108
			c0,2.346,0.714,3.025,2.278,3.025s2.278-0.68,2.278-3.025v-8.108h3.196V814.211z"/>
		<path d="M578.049,816.387h4.828v2.805h-8.023v-14.023h3.195V816.387z"/>
		<path d="M589.881,805.168l2.924,4.487l2.923-4.487h3.842l-5.168,7.734v6.289h-3.195v-6.289l-5.167-7.734H589.881z"/>
		<path d="M606.523,804.913c3.893,0,7.055,3.161,7.055,7.258s-3.025,7.275-7.055,7.275c-4.147,0-7.07-3.179-7.07-7.275
			S602.665,804.913,606.523,804.913z M606.523,816.353c2.551,0,3.604-2.091,3.604-4.182s-1.121-4.182-3.604-4.182
			c-2.465,0-3.62,2.091-3.62,4.182S603.906,816.353,606.523,816.353z"/>
		<path d="M625.767,814.211c0,3.468-1.904,5.235-5.474,5.235s-5.474-1.768-5.474-5.235v-9.043h3.195v8.108
			c0,2.346,0.715,3.025,2.278,3.025s2.278-0.68,2.278-3.025v-8.108h3.195V814.211z"/>
		<path d="M641.458,806.238l-1.293,2.55c0,0-1.394-0.969-2.838-0.969c-1.088,0-1.666,0.493-1.666,1.258
			c0,0.782,1.326,1.343,2.924,2.023c1.563,0.662,3.28,1.988,3.28,3.824c0,3.349-2.55,4.521-5.286,4.521
			c-3.281,0-5.27-1.853-5.27-1.853l1.598-2.686c0,0,1.869,1.58,3.434,1.58c0.697,0,2.023-0.067,2.023-1.377
			c0-1.02-1.496-1.479-3.162-2.312c-1.684-0.833-2.669-2.142-2.669-3.604c0-2.617,2.312-4.283,4.573-4.283
			C639.656,804.913,641.458,806.238,641.458,806.238z"/>
		<path d="M641.664,805.168h9.859v2.805h-3.332v11.219h-3.195v-11.219h-3.332V805.168z"/>
		<path d="M664.646,819.191h-3.434l-1.037-2.805h-5.338l-1.037,2.805h-3.434l5.661-14.023h2.958L664.646,819.191z M657.523,809.502
			h-0.033l-1.564,4.08h3.162L657.523,809.502z"/>
		<path d="M670.206,805.168c2.601,0,4.573,1.411,4.573,4.164c0,2.108-1.156,3.519-2.873,4.062l4.827,5.797h-4.062l-4.284-5.541
			v5.541h-3.195v-14.023H670.206z M668.761,811.39c1.207,0,2.651-0.085,2.651-1.836s-1.444-1.836-2.651-1.836h-0.375v3.672H668.761z
			"/>
		<path d="M675.798,805.168h9.859v2.805h-3.332v11.219h-3.195v-11.219h-3.332V805.168z"/>
		<path d="M698.527,811.321l-2.243,7.87h-3.553l-3.995-14.023h3.553l2.396,9.621h0.086l2.549-9.621h2.414l2.55,9.621h0.085
			l2.396-9.621h3.536l-3.995,14.023h-3.535L698.527,811.321z"/>
		<path d="M712.263,819.191h-3.195v-14.023h3.195V819.191z"/>
		<path d="M712.605,805.168h9.858v2.805h-3.331v11.219h-3.196v-11.219h-3.331V805.168z"/>
		<path d="M726.816,819.191h-3.195v-14.023h3.195v5.592h4.521v-5.592h3.195v14.023h-3.195v-5.626h-4.521V819.191z"/>
		<path d="M747.658,804.913c3.893,0,7.054,3.161,7.054,7.258s-3.026,7.275-7.054,7.275c-4.148,0-7.072-3.179-7.072-7.275
			S743.798,804.913,747.658,804.913z M747.658,816.353c2.549,0,3.604-2.091,3.604-4.182s-1.123-4.182-3.604-4.182
			c-2.465,0-3.621,2.091-3.621,4.182S745.04,816.353,747.658,816.353z"/>
		<path d="M766.9,814.211c0,3.468-1.903,5.235-5.473,5.235c-3.57,0-5.474-1.768-5.474-5.235v-9.043h3.195v8.108
			c0,2.346,0.714,3.025,2.278,3.025c1.563,0,2.277-0.68,2.277-3.025v-8.108h3.195V814.211z"/>
		<path d="M773.786,805.168c2.601,0,4.573,1.411,4.573,4.164c0,2.108-1.156,3.519-2.873,4.062l4.827,5.797h-4.062l-4.284-5.541
			v5.541h-3.195v-14.023H773.786z M772.341,811.39c1.207,0,2.651-0.085,2.651-1.836s-1.444-1.836-2.651-1.836h-0.375v3.672H772.341z
			"/>
	</g>
	<g enable-background="new    ">
		<path d="M424.552,839.592h-3.196v-14.023h3.196V839.592z"/>
		<path d="M429.787,839.592h-3.195v-14.023h3.195l5.576,8.703h0.034v-8.703h3.195v14.023h-3.195l-5.576-8.703h-0.034V839.592z"/>
		<path d="M438.934,825.568h9.859v2.805h-3.332v11.219h-3.195v-11.219h-3.332V825.568z"/>
		<path d="M454.964,825.568c2.601,0,4.573,1.411,4.573,4.164c0,2.108-1.156,3.519-2.873,4.062l4.827,5.797h-4.062l-4.283-5.541
			v5.541h-3.196v-14.023H454.964z M453.519,831.79c1.207,0,2.652-0.085,2.652-1.836s-1.445-1.836-2.652-1.836h-0.374v3.672H453.519z
			"/>
		<path d="M468.564,825.313c3.893,0,7.054,3.161,7.054,7.258s-3.026,7.275-7.054,7.275c-4.148,0-7.071-3.179-7.071-7.275
			S464.705,825.313,468.564,825.313z M468.564,836.753c2.55,0,3.604-2.091,3.604-4.182s-1.122-4.182-3.604-4.182
			c-2.465,0-3.621,2.091-3.621,4.182S465.946,836.753,468.564,836.753z"/>
		<path d="M490.851,826.639l-1.292,2.55c0,0-1.394-0.969-2.839-0.969c-1.088,0-1.666,0.493-1.666,1.258
			c0,0.782,1.326,1.343,2.923,2.023c1.564,0.662,3.281,1.988,3.281,3.824c0,3.349-2.55,4.521-5.286,4.521
			c-3.281,0-5.27-1.853-5.27-1.853l1.598-2.686c0,0,1.87,1.58,3.434,1.58c0.697,0,2.023-0.067,2.023-1.377
			c0-1.02-1.496-1.479-3.162-2.312c-1.683-0.833-2.669-2.142-2.669-3.604c0-2.617,2.312-4.283,4.573-4.283
			C489.049,825.313,490.851,826.639,490.851,826.639z"/>
		<path d="M500.779,828.373h-4.828v2.787h4.624v2.806h-4.624v2.821h4.828v2.805h-8.023v-14.023h8.023V828.373z"/>
		<path d="M512.134,826.639l-1.292,2.55c0,0-1.394-0.969-2.839-0.969c-1.088,0-1.666,0.493-1.666,1.258
			c0,0.782,1.326,1.343,2.923,2.023c1.564,0.662,3.281,1.988,3.281,3.824c0,3.349-2.55,4.521-5.286,4.521
			c-3.281,0-5.27-1.853-5.27-1.853l1.598-2.686c0,0,1.87,1.58,3.434,1.58c0.697,0,2.023-0.067,2.023-1.377
			c0-1.02-1.496-1.479-3.162-2.312c-1.683-0.833-2.669-2.142-2.669-3.604c0-2.617,2.312-4.283,4.573-4.283
			C510.333,825.313,512.134,826.639,512.134,826.639z"/>
		<path d="M523.219,826.639l-1.292,2.55c0,0-1.394-0.969-2.839-0.969c-1.088,0-1.666,0.493-1.666,1.258
			c0,0.782,1.326,1.343,2.923,2.023c1.564,0.662,3.281,1.988,3.281,3.824c0,3.349-2.55,4.521-5.286,4.521
			c-3.281,0-5.27-1.853-5.27-1.853l1.598-2.686c0,0,1.87,1.58,3.434,1.58c0.697,0,2.023-0.067,2.023-1.377
			c0-1.02-1.496-1.479-3.162-2.312c-1.683-0.833-2.669-2.142-2.669-3.604c0-2.617,2.312-4.283,4.573-4.283
			C521.417,825.313,523.219,826.639,523.219,826.639z"/>
		<path d="M528.319,839.592h-3.196v-14.023h3.196V839.592z"/>
		<path d="M536.802,825.313c3.893,0,7.054,3.161,7.054,7.258s-3.026,7.275-7.054,7.275c-4.148,0-7.071-3.179-7.071-7.275
			S532.943,825.313,536.802,825.313z M536.802,836.753c2.55,0,3.604-2.091,3.604-4.182s-1.122-4.182-3.604-4.182
			c-2.465,0-3.621,2.091-3.621,4.182S534.184,836.753,536.802,836.753z"/>
		<path d="M548.464,839.592h-3.195v-14.023h3.195l5.576,8.703h0.034v-8.703h3.195v14.023h-3.195l-5.576-8.703h-0.034V839.592z"/>
		<path d="M570.394,825.313c3.893,0,7.054,3.161,7.054,7.258s-3.026,7.275-7.054,7.275c-4.148,0-7.071-3.179-7.071-7.275
			S566.535,825.313,570.394,825.313z M570.394,836.753c2.55,0,3.604-2.091,3.604-4.182s-1.122-4.182-3.604-4.182
			c-2.465,0-3.621,2.091-3.621,4.182S567.776,836.753,570.394,836.753z"/>
		<path d="M582.056,839.592h-3.195v-14.023h3.195l5.576,8.703h0.034v-8.703h3.195v14.023h-3.195l-5.576-8.703h-0.034V839.592z"/>
		<path d="M595.843,825.568h9.859v2.805h-3.332v11.219h-3.195v-11.219h-3.332V825.568z"/>
		<path d="M610.054,839.592h-3.195v-14.023h3.195v5.592h4.521v-5.592h3.195v14.023h-3.195v-5.626h-4.521V839.592z"/>
		<path d="M627.835,828.373h-4.826v2.787h4.623v2.806h-4.623v2.821h4.826v2.805h-8.022v-14.023h8.022V828.373z"/>
		<path d="M636.964,830.685l-2.668-1.292c0,0,1.359-4.079,5.168-4.079c4.811,0,5.439,3.161,5.439,4.93
			c0,3.28-4.947,6.544-4.947,6.544h5.201v2.805h-10.93v-0.799c0,0,7.225-5.967,7.225-8.55c0-0.511-0.119-2.228-1.988-2.228
			C637.934,828.016,636.964,830.685,636.964,830.685z"/>
		<path d="M654.712,832.027c1.41,0.646,2.465,1.87,2.465,3.791c0,2.362-2.602,4.028-5.236,4.028c-2.719,0-5.252-1.666-5.252-4.028
			c0-1.921,1.037-3.145,2.447-3.791c-1.07-0.611-1.852-1.632-1.852-3.179c0-2.073,2.328-3.535,4.641-3.535
			c2.396,0,4.589,1.462,4.589,3.535C656.514,830.396,655.766,831.416,654.712,832.027z M651.925,837.093
			c1.02,0,1.784-0.748,1.784-1.784c0-1.055-0.799-1.785-1.784-1.785c-1.004,0-1.769,0.73-1.769,1.785
			C650.157,836.345,650.871,837.093,651.925,837.093z M651.941,827.727c-0.9,0-1.58,0.681-1.58,1.581
			c0,0.936,0.714,1.564,1.58,1.564c0.902,0,1.547-0.629,1.547-1.564C653.488,828.407,652.859,827.727,651.941,827.727z"/>
	</g>
	<g enable-background="new    ">
		<path d="M660.164,825.747h5.753v1.637h-1.944v6.546h-1.864v-6.546h-1.944V825.747z"/>
		<path d="M668.452,833.93h-1.865v-8.183h1.865v3.263h2.638v-3.263h1.865v8.183h-1.865v-3.283h-2.638V833.93z"/>
	</g>
	<g enable-background="new    ">
		<path d="M685.647,825.313c3.893,0,7.054,3.161,7.054,7.258s-3.025,7.275-7.054,7.275c-4.147,0-7.071-3.179-7.071-7.275
			S681.789,825.313,685.647,825.313z M685.647,836.753c2.55,0,3.604-2.091,3.604-4.182s-1.122-4.182-3.604-4.182
			c-2.465,0-3.62,2.091-3.62,4.182S683.029,836.753,685.647,836.753z"/>
		<path d="M704.33,835.835l1.359,2.72c0,0-1.564,1.292-4.606,1.292c-3.96,0-7.599-3.229-7.599-7.241
			c0-4.028,3.621-7.292,7.599-7.292c3.042,0,4.606,1.292,4.606,1.292l-1.359,2.72c0,0-1.123-0.867-2.754-0.867
			c-3.213,0-4.624,2.244-4.624,4.113c0,1.887,1.411,4.131,4.624,4.131C703.207,836.702,704.33,835.835,704.33,835.835z"/>
		<path d="M706.03,825.568h9.859v2.805h-3.332v11.219h-3.195v-11.219h-3.332V825.568z"/>
		<path d="M722.945,825.313c3.893,0,7.054,3.161,7.054,7.258s-3.026,7.275-7.054,7.275c-4.148,0-7.072-3.179-7.072-7.275
			S719.085,825.313,722.945,825.313z M722.945,836.753c2.549,0,3.604-2.091,3.604-4.182s-1.123-4.182-3.604-4.182
			c-2.465,0-3.621,2.091-3.621,4.182S720.327,836.753,722.945,836.753z"/>
		<path d="M735.763,825.568c2.413,0,4.316,0.9,4.316,3.569c0,1.292-0.561,2.396-1.75,3.009c1.75,0.306,2.991,1.275,2.991,3.536
			c0,2.312-1.683,3.909-4.589,3.909h-5.32v-14.023H735.763z M734.862,831.059c1.377,0,2.124-0.425,2.124-1.598
			c0-1.003-0.73-1.428-2.124-1.428h-0.255v3.025H734.862z M735.609,837.127c1.514,0,2.347-0.459,2.347-1.563
			c0-1.292-0.833-1.751-2.347-1.751h-1.002v3.314H735.609z"/>
		<path d="M750.755,828.373h-4.827v2.787h4.624v2.806h-4.624v2.821h4.827v2.805h-8.022v-14.023h8.022V828.373z"/>
		<path d="M757.607,825.568c2.602,0,4.572,1.411,4.572,4.164c0,2.108-1.155,3.519-2.872,4.062l4.827,5.797h-4.062l-4.283-5.541
			v5.541h-3.195v-14.023H757.607z M756.162,831.79c1.207,0,2.652-0.085,2.652-1.836s-1.445-1.836-2.652-1.836h-0.373v3.672H756.162z
			"/>
	</g>
	<rect x="594.142" y="285.714" fill="none" width="166.668" height="98.81"/>
	<g enable-background="new    ">
		<path fill="#F1613D" d="M649.971,291.324l7.05-4.56h2.67v24.749h-5.641v-17.249l-4.079,2.64V291.324z"/>
		<path fill="#F1613D" d="M676.701,298.164c2.489,1.14,4.35,3.3,4.35,6.689c0,4.17-4.59,7.11-9.24,7.11c-4.8,0-9.27-2.94-9.27-7.11
			c0-3.39,1.83-5.55,4.32-6.689c-1.891-1.08-3.27-2.88-3.27-5.609c0-3.66,4.109-6.24,8.189-6.24c4.229,0,8.1,2.58,8.1,6.24
			C679.88,295.284,678.56,297.084,676.701,298.164z M671.781,307.104c1.799,0,3.149-1.319,3.149-3.149c0-1.86-1.41-3.15-3.149-3.15
			c-1.771,0-3.12,1.29-3.12,3.15C668.661,305.784,669.92,307.104,671.781,307.104z M671.81,290.574c-1.59,0-2.789,1.2-2.789,2.79
			c0,1.65,1.26,2.76,2.789,2.76c1.59,0,2.73-1.109,2.73-2.76C674.541,291.774,673.43,290.574,671.81,290.574z"/>
	</g>
	<g enable-background="new    ">
		<path fill="#F1613D" d="M682.241,287.098h10.143v2.885h-3.428v11.541h-3.287v-11.541h-3.428V287.098z"/>
		<path fill="#F1613D" d="M696.862,301.523h-3.288v-14.426h3.288v5.753h4.651v-5.753h3.287v14.426h-3.287v-5.788h-4.651V301.523z"/>
	</g>
	<text transform="matrix(1 0 0 1 705.8521 311.5137)" fill="#F1613D" font-family="'LeagueSpartan-Bold'" font-size="30"> </text>
	<g enable-background="new    ">
		<path fill="#F1613D" d="M614.671,322.314c6.87,0,12.45,5.58,12.45,12.81s-5.34,12.84-12.45,12.84
			c-7.319,0-12.479-5.61-12.479-12.84S607.863,322.314,614.671,322.314z M614.671,342.504c4.5,0,6.36-3.689,6.36-7.38
			c0-3.689-1.979-7.38-6.36-7.38c-4.35,0-6.389,3.69-6.389,7.38C608.283,338.814,610.052,342.504,614.671,342.504z"/>
		<path fill="#F1613D" d="M647.642,340.884l2.399,4.8c0,0-2.76,2.28-8.13,2.28c-6.989,0-13.409-5.7-13.409-12.779
			c0-7.11,6.39-12.87,13.409-12.87c5.37,0,8.13,2.28,8.13,2.28l-2.399,4.8c0,0-1.98-1.53-4.86-1.53c-5.669,0-8.159,3.96-8.159,7.26
			c0,3.33,2.49,7.29,8.159,7.29C645.662,342.414,647.642,340.884,647.642,340.884z"/>
		<path fill="#F1613D" d="M650.642,322.765h17.399v4.95h-5.88v19.799h-5.64v-19.799h-5.88V322.765z"/>
		<path fill="#F1613D" d="M680.492,322.314c6.869,0,12.449,5.58,12.449,12.81s-5.34,12.84-12.449,12.84
			c-7.32,0-12.48-5.61-12.48-12.84S673.681,322.314,680.492,322.314z M680.492,342.504c4.5,0,6.359-3.689,6.359-7.38
			c0-3.689-1.98-7.38-6.359-7.38c-4.35,0-6.391,3.69-6.391,7.38C674.101,338.814,675.872,342.504,680.492,342.504z"/>
		<path fill="#F1613D" d="M703.111,322.765c4.26,0,7.62,1.59,7.62,6.3c0,2.28-0.989,4.229-3.09,5.31c3.09,0.54,5.28,2.25,5.28,6.24
			c0,4.079-2.971,6.899-8.1,6.899h-9.391v-24.749H703.111z M701.521,332.454c2.431,0,3.75-0.75,3.75-2.819
			c0-1.771-1.289-2.521-3.75-2.521h-0.449v5.34H701.521z M702.841,343.164c2.67,0,4.141-0.811,4.141-2.76
			c0-2.28-1.471-3.09-4.141-3.09h-1.77v5.85H702.841z"/>
		<path fill="#F1613D" d="M729.571,327.715h-8.52v4.92h8.159v4.949h-8.159v4.979h8.52v4.95h-14.159v-24.749h14.159V327.715z"/>
		<path fill="#F1613D" d="M741.661,322.765c4.59,0,8.069,2.49,8.069,7.35c0,3.72-2.039,6.21-5.069,7.17l8.52,10.229h-7.169
			l-7.561-9.779v9.779h-5.64v-24.749H741.661z M739.111,333.744c2.13,0,4.68-0.15,4.68-3.24s-2.55-3.239-4.68-3.239h-0.66v6.479
			H739.111z"/>
	</g>
	<rect x="624.619" y="615.81" fill="none" width="166.668" height="98.811"/>
	<g enable-background="new    ">
		<path fill="#F1613D" d="M639.322,625.891l-4.709-2.279c0,0,2.399-7.2,9.119-7.2c8.49,0,9.6,5.58,9.6,8.7
			c0,5.789-8.729,11.549-8.729,11.549h9.179v4.95h-19.289v-1.41c0,0,12.75-10.529,12.75-15.089c0-0.9-0.21-3.93-3.51-3.93
			C641.032,621.182,639.322,625.891,639.322,625.891z"/>
		<path fill="#F1613D" d="M675.021,631.44v4.95h-2.879v5.22h-5.28v-5.22h-12.18v-1.68l11.88-17.85h5.58v14.579H675.021z
			 M666.802,624.391l-4.41,7.05h4.47v-7.05H666.802z"/>
	</g>
	<g enable-background="new    ">
		<path fill="#F1613D" d="M675.552,617.192h10.143v2.886h-3.428v11.541h-3.287v-11.541h-3.428V617.192z"/>
		<path fill="#F1613D" d="M690.173,631.619h-3.288v-14.427h3.288v5.753h4.651v-5.753h3.287v14.427h-3.287v-5.788h-4.651V631.619z"/>
	</g>
	<g enable-background="new    ">
		<path fill="#F1613D" d="M704.443,645.21h-4.59l12.359-29.398h4.59L704.443,645.21z"/>
		<path fill="#F1613D" d="M723.972,625.891l-4.71-2.279c0,0,2.399-7.2,9.12-7.2c8.489,0,9.6,5.58,9.6,8.7
			c0,5.789-8.73,11.549-8.73,11.549h9.18v4.95h-19.289v-1.41c0,0,12.75-10.529,12.75-15.089c0-0.9-0.211-3.93-3.51-3.93
			C725.681,621.182,723.972,625.891,723.972,625.891z"/>
		<path fill="#F1613D" d="M745.091,634.53c0.451,1.53,1.771,2.82,4.351,2.82c2.04,0,3.54-1.5,3.54-3.6
			c0-3.271-3.211-4.351-6.42-4.351c-2.07,0-3.48,0.45-4.23,0.78l2.07-13.319h12.629v4.95h-7.799l-0.54,3.449
			c0.21,0,0.45-0.029,0.69-0.029c4.68,0.029,9.238,1.829,9.238,8.699c0,4.74-3.869,8.13-9.179,8.13c-5.28,0-7.89-2.851-8.819-5.37
			L745.091,634.53z"/>
	</g>
	<g enable-background="new    ">
		<path fill="#F1613D" d="M759.453,617.192h10.143v2.886h-3.428v11.541h-3.287v-11.541h-3.428V617.192z"/>
		<path fill="#F1613D" d="M774.074,631.619h-3.289v-14.427h3.289v5.753h4.65v-5.753h3.287v14.427h-3.287v-5.788h-4.65V631.619z"/>
	</g>
	<text transform="matrix(1 0 0 1 783.063 641.6104)" fill="#F1613D" font-family="'LeagueSpartan-Bold'" font-size="30"> </text>
	<g enable-background="new    ">
		<path fill="#F1613D" d="M645.148,652.411c6.869,0,12.449,5.58,12.449,12.81s-5.34,12.84-12.449,12.84
			c-7.32,0-12.479-5.61-12.479-12.84S638.338,652.411,645.148,652.411z M645.148,672.601c4.5,0,6.359-3.689,6.359-7.38
			c0-3.689-1.979-7.38-6.359-7.38c-4.35,0-6.39,3.69-6.39,7.38C638.758,668.911,640.529,672.601,645.148,672.601z"/>
		<path fill="#F1613D" d="M678.118,670.98l2.399,4.8c0,0-2.76,2.28-8.129,2.28c-6.99,0-13.41-5.7-13.41-12.779
			c0-7.11,6.391-12.87,13.41-12.87c5.369,0,8.129,2.28,8.129,2.28l-2.399,4.8c0,0-1.979-1.53-4.86-1.53
			c-5.669,0-8.159,3.96-8.159,7.26c0,3.33,2.49,7.29,8.159,7.29C676.138,672.511,678.118,670.98,678.118,670.98z"/>
		<path fill="#F1613D" d="M681.119,652.861h17.398v4.95h-5.879v19.799h-5.641v-19.799h-5.879V652.861z"/>
		<path fill="#F1613D" d="M710.967,652.411c6.87,0,12.45,5.58,12.45,12.81s-5.34,12.84-12.45,12.84
			c-7.319,0-12.479-5.61-12.479-12.84S704.158,652.411,710.967,652.411z M710.967,672.601c4.5,0,6.36-3.689,6.36-7.38
			c0-3.689-1.98-7.38-6.36-7.38c-4.35,0-6.39,3.69-6.39,7.38C704.578,668.911,706.347,672.601,710.967,672.601z"/>
		<path fill="#F1613D" d="M733.587,652.861c4.26,0,7.619,1.59,7.619,6.3c0,2.28-0.989,4.229-3.09,5.31
			c3.09,0.54,5.28,2.25,5.28,6.24c0,4.079-2.97,6.899-8.1,6.899h-9.39v-24.749H733.587z M731.998,662.551
			c2.43,0,3.75-0.75,3.75-2.819c0-1.771-1.29-2.521-3.75-2.521h-0.449v5.34H731.998z M733.318,673.261c2.67,0,4.14-0.811,4.14-2.76
			c0-2.28-1.47-3.09-4.14-3.09h-1.77v5.85H733.318z"/>
		<path fill="#F1613D" d="M760.046,657.812h-8.52v4.92h8.16v4.949h-8.16v4.979h8.52v4.95h-14.159v-24.749h14.159V657.812z"/>
		<path fill="#F1613D" d="M772.136,652.861c4.59,0,8.07,2.49,8.07,7.35c0,3.72-2.04,6.21-5.07,7.17l8.52,10.229h-7.169l-7.56-9.779
			v9.779h-5.641v-24.749H772.136z M769.587,663.841c2.129,0,4.68-0.15,4.68-3.24s-2.551-3.239-4.68-3.239h-0.66v6.479H769.587z"/>
	</g>
	<rect x="430.286" y="449.595" fill="none" width="166.667" height="98.811"/>
	<g enable-background="new    ">
		<path fill="#F1613D" d="M483.832,459.675l-4.709-2.279c0,0,2.4-7.2,9.12-7.2c8.49,0,9.6,5.58,9.6,8.7
			c0,5.789-8.729,11.549-8.729,11.549h9.179v4.95h-19.289v-1.41c0,0,12.75-10.529,12.75-15.089c0-0.9-0.21-3.93-3.51-3.93
			C485.542,454.966,483.832,459.675,483.832,459.675z"/>
		<path fill="#F1613D" d="M506.422,459.675l-4.709-2.279c0,0,2.4-7.2,9.12-7.2c8.49,0,9.6,5.58,9.6,8.7
			c0,5.789-8.729,11.549-8.729,11.549h9.179v4.95h-19.289v-1.41c0,0,12.75-10.529,12.75-15.089c0-0.9-0.21-3.93-3.51-3.93
			C508.132,454.966,506.422,459.675,506.422,459.675z"/>
	</g>
	<g enable-background="new    ">
		<path fill="#F1613D" d="M526.869,465.404h-3.288v-14.427h3.288l5.735,8.953h0.035v-8.953h3.287v14.427h-3.287l-5.735-8.953h-0.035
			V465.404z"/>
		<path fill="#F1613D" d="M542.207,450.978c3.952,0,7.274,3.008,7.274,7.205c0,4.214-3.305,7.222-7.274,7.222h-4.18v-14.427H542.207
			z M541.822,462.467c2.431,0,4.092-1.854,4.109-4.267c0-2.413-1.661-4.284-4.109-4.284h-0.507v8.551H541.822z"/>
	</g>
	<text transform="matrix(1 0 0 1 549.8857 475.3945)" fill="#F1613D" font-family="'LeagueSpartan-Bold'" font-size="30"> </text>
	<g enable-background="new    ">
		<path fill="#F1613D" d="M450.815,486.195c6.87,0,12.45,5.58,12.45,12.81s-5.34,12.84-12.45,12.84
			c-7.32,0-12.479-5.61-12.479-12.84S444.005,486.195,450.815,486.195z M450.815,506.385c4.5,0,6.36-3.689,6.36-7.38
			c0-3.689-1.98-7.38-6.36-7.38c-4.35,0-6.39,3.69-6.39,7.38C444.425,502.695,446.195,506.385,450.815,506.385z"/>
		<path fill="#F1613D" d="M483.785,504.765l2.4,4.8c0,0-2.76,2.28-8.129,2.28c-6.99,0-13.41-5.7-13.41-12.779
			c0-7.11,6.39-12.87,13.41-12.87c5.37,0,8.129,2.28,8.129,2.28l-2.4,4.8c0,0-1.98-1.53-4.86-1.53c-5.669,0-8.16,3.96-8.16,7.26
			c0,3.33,2.49,7.29,8.16,7.29C481.805,506.295,483.785,504.765,483.785,504.765z"/>
		<path fill="#F1613D" d="M486.785,486.646h17.399v4.95h-5.88v19.799h-5.64v-19.799h-5.88V486.646z"/>
		<path fill="#F1613D" d="M516.634,486.195c6.87,0,12.45,5.58,12.45,12.81s-5.34,12.84-12.45,12.84
			c-7.32,0-12.479-5.61-12.479-12.84S509.825,486.195,516.634,486.195z M516.634,506.385c4.5,0,6.36-3.689,6.36-7.38
			c0-3.689-1.98-7.38-6.36-7.38c-4.35,0-6.39,3.69-6.39,7.38C510.245,502.695,512.015,506.385,516.634,506.385z"/>
		<path fill="#F1613D" d="M539.254,486.646c4.26,0,7.62,1.59,7.62,6.3c0,2.28-0.99,4.229-3.09,5.31c3.09,0.54,5.28,2.25,5.28,6.24
			c0,4.079-2.97,6.899-8.1,6.899h-9.39v-24.749H539.254z M537.665,496.335c2.43,0,3.75-0.75,3.75-2.819
			c0-1.771-1.29-2.521-3.75-2.521h-0.45v5.34H537.665z M538.984,507.045c2.67,0,4.14-0.811,4.14-2.76c0-2.28-1.47-3.09-4.14-3.09
			h-1.77v5.85H538.984z"/>
		<path fill="#F1613D" d="M565.714,491.596h-8.52v4.92h8.159v4.949h-8.159v4.979h8.52v4.95h-14.16v-24.749h14.16V491.596z"/>
		<path fill="#F1613D" d="M577.804,486.646c4.59,0,8.07,2.49,8.07,7.35c0,3.72-2.04,6.21-5.07,7.17l8.52,10.229h-7.169l-7.56-9.779
			v9.779h-5.64v-24.749H577.804z M575.254,497.625c2.13,0,4.68-0.15,4.68-3.24s-2.55-3.239-4.68-3.239h-0.66v6.479H575.254z"/>
	</g>
	<g>
		<g>
			<path fill="#04A480" d="M622.775,95.375c12.01,0,7.623,17.338,7.623,17.338s17.338-4.769,17.338,7.1v33.355h-46.234V95.375
				H622.775z M625.166,89.595h-29.443v69.354h57.795v-41.571C653.515,110.466,634.304,89.595,625.166,89.595z M639.068,127.162
				h-8.67v-2.89h8.67V127.162z M639.068,132.94h-8.67v2.891h8.67V132.94z M639.068,141.61h-28.898v2.89h28.896v-2.89H639.068z
				 M624.619,124.271h-14.449v11.559h14.449V124.271L624.619,124.271z"/>
		</g>
	</g>
	<g>
		<g>
			<path fill="#04A480" d="M825.345,526.739c-12.455,3.035-21.537-4.603-21.537-12.774c0-7.849,7.689-13.516,16.186-13.516
				c8.547,0,16.184,5.708,16.184,13.516c0,2.771-0.996,5.487-2.762,7.6c-0.072,2.472,1.381,6.02,2.689,8.601
				C832.599,529.528,827.605,528.127,825.345,526.739L825.345,526.739z M798.867,513.964c0-10.179,9.479-18.46,21.127-18.46
				c2.188,0,4.299,0.294,6.289,0.835c-0.053-11.951-11.773-20.567-24.717-20.567c-13.061,0-24.727,8.721-24.727,20.65
				c0,4.228,1.521,8.383,4.215,11.606c0.117,3.774-2.104,9.193-4.104,13.137c5.357-0.965,12.982-3.11,16.438-5.23
				c1.982,0.486,3.896,0.755,5.758,0.898C798.976,515.896,798.867,514.943,798.867,513.964z"/>
		</g>
		<g>
			<path fill="#04A480" d="M780.119,542.506c-8.604-1.984-16.607-3.724-12.73-11.05c11.803-22.287,3.125-34.206-9.334-34.206
				c-12.707,0-21.168,12.377-9.334,34.206c3.996,7.366-4.312,9.106-12.729,11.05c-7.447,1.723-7.947,5.362-7.947,11.663l0.012,3.104
				h26.219l1.76-7.502h4.039l1.764,7.502h26.215l0.014-3.104C788.066,547.869,787.568,544.229,780.119,542.506L780.119,542.506z
				 M759.533,547.268h-2.91l-2.275-5.002h7.488L759.533,547.268z"/>
		</g>
		<g>
			<path fill="#04A480" d="M870.949,545.737c-6.721-1.552-12.975-2.911-9.945-8.632c9.223-17.413,2.443-26.725-7.293-26.725
				c-9.93,0-16.533,9.67-7.289,26.725c3.119,5.754-3.373,7.113-9.945,8.632c-6.004,1.388-6.229,4.368-6.211,9.582l0.01,1.954h46.869
				l0.01-1.894C877.175,550.128,876.972,547.128,870.949,545.737L870.949,545.737z"/>
		</g>
	</g>
	<g>
		<g id="Layer_1_2_">
			<g>
				<g>
					<g>
						<line display="none" fill="none" x1="222.339" y1="547.072" x2="222.339" y2="744.514"/>
					</g>
				</g>
			</g>
		</g>
		<g>
			<g>
				<g>
					<path fill="#04A480" d="M546.67,729.256c0-0.954,0.007-1.855,0.007-2.699c0-5.497-0.429-8.67-6.926-10.173
						c-7.495-1.729-14.477-3.249-11.097-9.632c10.287-19.429,2.725-29.818-8.139-29.818c-11.072,0-18.453,10.789-8.135,29.818
						c3.482,6.427-3.755,7.938-11.097,9.632c-6.489,1.5-6.923,4.671-6.923,10.156c0,0.851,0.009,1.752,0.009,2.714h52.301
						L546.67,729.256L546.67,729.256z M566.729,735.753c0-3.095-3.21-2.979-3.21-2.979l-3.173,0.014c0-0.005,0-0.009,0-0.014
						c0-4.891-1.011-7.465-1.644-8.597c1.148-1.021,1.873-2.512,1.873-4.17c0-3.082-2.498-5.579-5.579-5.579
						c-3.082,0-5.581,2.497-5.581,5.579s2.499,5.58,5.581,5.58c0.178,0,0.354-0.011,0.531-0.024c1.709,3.21,1.531,7.211,1.531,7.211
						l0.005,0.021l-36.734,0.092l-43.189-0.113c0,0-3.21-0.114-3.21,2.979c0,3.098-0.216,3.881,0.458,4.625l9.604,9.995
						c0,0,0.631,0.917,2.15,0.917c1.519,0,5.416,0,5.416,0s0.488,0.057,0.488-0.774c0-0.832-0.077-5.552-0.077-5.552
						s-0.075-0.954,1.109-0.954c1.184,0,6.803-0.041,6.803-0.041l20.41,0.078l0,0h0.037h0.039l0,0l20.41-0.078
						c0,0,5.618,0.041,6.803,0.041s1.108,0.954,1.108,0.954s-0.076,4.72-0.076,5.552c0,0.831,0.487,0.774,0.487,0.774
						s3.896,0,5.417,0c1.52,0,2.15-0.917,2.15-0.917l9.602-9.995C566.944,739.634,566.729,738.849,566.729,735.753z M520.136,747.45
						h-24.191l3.821,37.418c0,0,0.345,2.828,3.21,2.828c2.655,0,15.306,0,17.161,0c0.147,0,0.229,0,0.229,0
						c1.855,0,14.506,0,17.161,0c2.865,0,3.21-2.828,3.21-2.828l3.822-37.418h-24.192H520.136L520.136,747.45z"/>
				</g>
			</g>
		</g>
	</g>
	<g>
		<g>
			<g>
				<path fill="#00A380" d="M864.828,168.124c-5.289-0.027-11.932,2.836-16.994,7.903c-1.932,1.931-3.635,4.185-4.947,6.717
					c4.57-3.458,9.445-4.545,15.15-1.342C859.716,176.962,861.96,172.442,864.828,168.124z M895.062,198.326
					c-4.686,3.059-9.291,5.271-13.275,6.829c3.201,5.71,2.117,10.58-1.344,15.146c2.531-1.309,4.785-3.011,6.725-4.948
					C892.246,210.278,895.111,203.621,895.062,198.326z M914.076,149.048c-1.273-0.087-2.523-0.129-3.752-0.129
					c-26.578,0-41.711,20.264-47.215,36.566l14.607,14.612c16.773-6.012,36.52-20.582,36.52-46.884
					C914.236,151.858,914.181,150.47,914.076,149.048L914.076,149.048z M883.517,179.672c-1.207-1.21-1.207-3.162,0-4.37
					c1.209-1.207,3.162-1.207,4.369,0c1.211,1.208,1.211,3.16,0,4.37C886.679,180.88,884.724,180.876,883.517,179.672z
					 M892.255,170.933c-2.414-2.412-2.414-6.325,0-8.739c2.414-2.414,6.328-2.414,8.74,0c2.414,2.414,2.414,6.325,0,8.739
					C898.582,173.348,894.669,173.348,892.255,170.933z M867.47,197.586l3.131,3.126c-2.912,2.948-5.895,6.437-7.066,11.241
					l-4.295-1.054C860.681,204.995,864.205,200.89,867.47,197.586z M862.419,192.541l3.123,3.12
					c-3.457,3.407-7.457,6.809-13.312,8.239l-1.049-4.294C855.98,198.428,859.496,195.431,862.419,192.541z M870.908,212.457
					c0.635,6.271-2.922,10.092-7.662,10.574c-2.789,0.283-5.258-0.633-7.283-2.722c-4.867,1.721-9.5-0.146-11.941-3.621
					c-1.92-2.729-2.346-6.187-1.18-9.497c-2.088-2.028-3.006-4.475-2.719-7.281c0.477-4.699,4.205-8.327,10.766-7.648l0.65,3.733
					c-2.213,0.205-4.262,0.32-5.592,1.645c-2.229,2.236-1.559,6.889,2.629,8.127c-2.777,2.79-2.512,6.801-0.422,9.002
					c2.186,2.308,6.355,2.668,9.23-0.194c1.283,4.357,6,4.75,8.123,2.629c1.309-1.31,1.438-3.319,1.641-5.504L870.908,212.457z"/>
			</g>
		</g>
	</g>
	<g>
		<g>
			<g>
				<path fill="#00A380" d="M238.691,413.045c-2.251,0-4.368-0.876-5.955-2.467l-27.491-28.972l-1.572,1.691l-5.001,5.003
					l-13.79-13.795l6.508-6.51l1.771,1.19c0.068,0.038,0.443,0.223,0.789,0.223c0.14,0,0.312-0.021,0.558-0.269
					c0.506-0.506,0.809-1.223,1.231-2.215c0.837-1.968,1.983-4.669,5.638-7.419c3.084-2.324,6.897-3.504,11.323-3.504
					c7.034,0,13.24,3.016,13.501,3.143l-0.881,4.902c-4.299,0.431-11.819,1.978-8.604,5.206L244.68,398.7
					c1.558,1.562,2.431,3.675,2.431,5.923s-0.873,4.363-2.466,5.953C243.054,412.169,240.94,413.045,238.691,413.045z
					 M214.471,383.569l21.961,23.381c1.152,1.147,3.32,1.188,4.545-0.035c0.61-0.61,0.95-1.426,0.95-2.289
					c0-0.864-0.337-1.677-0.952-2.292l-21.928-23.341L214.471,383.569z M192.211,374.507l6.46,6.464l0.056-0.056
					c-0.357-1.448-0.149-3.178,1.357-4.685c0.898-0.896,2.016-1.37,3.24-1.37c1.691,0,3.391,0.881,5.199,2.691l2.316,2.317
					l4.578-4.581l-2.375-2.373c-3.033-3.041-2.661-5.809-2.173-7.188c0.639-1.788,2.095-3.262,4.31-4.396
					c-0.81-0.094-1.643-0.147-2.486-0.147c-3.276,0-6.036,0.828-8.204,2.461c-2.542,1.912-3.241,3.563-3.985,5.307
					c-0.552,1.297-1.119,2.634-2.337,3.852c-1.167,1.17-2.627,1.788-4.219,1.788c-0.589,0-1.133-0.083-1.615-0.208L192.211,374.507z
					 M227.352,372.901l8.65-8.546c0.438-0.44,1.149-0.436,1.585,0c0.438,0.441,0.438,1.147,0.002,1.585l-8.695,8.591l2.246,2.362
					l8.751-8.647c0.436-0.438,1.145-0.436,1.585,0.002c0.436,0.436,0.438,1.145,0,1.58l-8.794,8.69l2.618,2.76l9.541-9.43
					c1.515-1.509,2.269-3.492,2.269-5.472c0-1.99-0.759-3.985-2.281-5.51c-1.517-1.517-3.502-2.273-5.481-2.273
					c-1.985,0-3.966,0.759-5.479,2.273l-9.255,9.148L227.352,372.901z M208.597,392.738l-10.701,10.354
					c-0.592,0.593-1.303,1.057-2.047,1.446l-1.504,0.785l-2.657,5.562l2.159,2.16l5.447-2.775l0.779-1.504
					c0.396-0.739,0.901-1.413,1.489-2.006l10.609-10.262L208.597,392.738z"/>
			</g>
		</g>
	</g>
	<g>
		<g>
			<rect x="410.024" y="124.272" fill="none" width="166.667" height="98.81"/>
		</g>
	</g>
	<g enable-background="new    ">
		<g>
			<path fill="#F1613D" d="M420.709,134.353L416,132.073c0,0,2.4-7.2,9.12-7.2c8.49,0,9.6,5.58,9.6,8.7
				c0,5.789-8.729,11.549-8.729,11.549h9.179v4.95h-19.289v-1.41c0,0,12.75-10.529,12.75-15.089c0-0.9-0.21-3.93-3.51-3.93
				C422.419,129.644,420.709,134.353,420.709,134.353z"/>
		</g>
		<g>
			<path fill="#F1613D" d="M438.529,130.303c0,0,1.26-5.43,8.189-5.43c4.71,0,8.13,3,8.13,7.2c0,2.04-0.84,3.6-2.19,4.649
				c1.92,1.17,3.15,3.06,3.15,5.67c0,4.74-3.87,8.13-9.18,8.13c-7.62,0-9.3-6.09-9.3-6.09l5.22-2.55c0,0,0.33,3.779,4.05,3.779
				c2.07,0,3.57-1.17,3.57-3.27c0-2.13-1.59-3.63-3.57-3.63c-0.6,0-1.08,0.18-1.08,0.18v-3.689h1.23c1.5,0,2.97-1.32,2.97-3.12
				c0-1.59-1.47-2.729-3.06-2.729c-3.12,0-3.69,3.06-3.69,3.06L438.529,130.303z"/>
		</g>
		<g>
			<path fill="#F1613D" d="M465.438,136.902c0,1.891-1.53,3.42-3.45,3.42c-1.89,0-3.42-1.529-3.42-3.42
				c0-1.92,1.53-3.449,3.42-3.449C463.909,133.453,465.438,134.982,465.438,136.902z M465.438,147.103c0,1.89-1.53,3.42-3.45,3.42
				c-1.89,0-3.42-1.53-3.42-3.42c0-1.92,1.53-3.45,3.42-3.45C463.909,143.652,465.438,145.183,465.438,147.103z"/>
		</g>
		<g>
			<path fill="#F1613D" d="M472.249,142.992c0.45,1.53,1.77,2.82,4.35,2.82c2.04,0,3.54-1.5,3.54-3.6
				c0-3.271-3.21-4.351-6.419-4.351c-2.07,0-3.48,0.45-4.23,0.78l2.07-13.319h12.629v4.95h-7.8l-0.54,3.449
				c0.21,0,0.45-0.029,0.69-0.029c4.68,0.029,9.239,1.829,9.239,8.699c0,4.74-3.87,8.13-9.179,8.13c-5.28,0-7.89-2.851-8.82-5.37
				L472.249,142.992z"/>
		</g>
		<g>
			<path fill="#F1613D" d="M497.028,141.583c0,0-0.63,0.359-1.77,0.359c-3.39,0-7.89-2.909-7.89-8.669c0-5.851,4.71-8.4,9.18-8.4
				c5.55,0,9.87,3.66,9.87,8.4c0,4.35-1.32,6.359-3.9,9.869l-5.82,6.93h-6.959L497.028,141.583z M496.818,129.523
				c-2.19,0-3.81,1.59-3.81,3.75c0,2.22,1.68,3.84,3.81,3.84c2.07,0,3.75-1.62,3.75-3.84
				C500.568,131.113,499.008,129.523,496.818,129.523z"/>
		</g>
		<g>
			<path fill="#F1613D" d="M521.809,134.353l-4.71-2.279c0,0,2.4-7.2,9.12-7.2c8.49,0,9.6,5.58,9.6,8.7
				c0,5.789-8.73,11.549-8.73,11.549h9.18v4.95h-19.289v-1.41c0,0,12.75-10.529,12.75-15.089c0-0.9-0.21-3.93-3.51-3.93
				C523.518,129.644,521.809,134.353,521.809,134.353z"/>
		</g>
		<g>
			<path fill="#F1613D" d="M538.788,129.883l7.05-4.56h2.669v24.749h-5.64v-17.249l-4.08,2.64V129.883z"/>
		</g>
	</g>
	<g enable-background="new    ">
		<g>
			<path fill="#F1613D" d="M561.148,126.757l-1.329,2.623c0,0-1.434-0.997-2.92-0.997c-1.119,0-1.714,0.507-1.714,1.294
				c0,0.804,1.364,1.381,3.008,2.081c1.608,0.682,3.375,2.046,3.375,3.935c0,3.445-2.623,4.651-5.438,4.651
				c-3.375,0-5.421-1.906-5.421-1.906l1.644-2.763c0,0,1.924,1.626,3.532,1.626c0.717,0,2.081-0.07,2.081-1.417
				c0-1.049-1.539-1.521-3.253-2.378c-1.73-0.857-2.745-2.204-2.745-3.708c0-2.693,2.378-4.407,4.704-4.407
				C559.295,125.393,561.148,126.757,561.148,126.757z"/>
		</g>
		<g>
			<path fill="#F1613D" d="M561.36,125.655h10.143v2.885h-3.428v11.541h-3.287v-11.541h-3.428V125.655z"/>
		</g>
	</g>
	<g enable-background="new    ">
	</g>
	<g enable-background="new    ">
		<g>
			<path fill="#F1613D" d="M430.553,160.873c6.87,0,12.45,5.58,12.45,12.81s-5.34,12.84-12.45,12.84
				c-7.32,0-12.479-5.61-12.479-12.84S423.743,160.873,430.553,160.873z M430.553,181.062c4.5,0,6.36-3.689,6.36-7.38
				c0-3.689-1.98-7.38-6.36-7.38c-4.35,0-6.39,3.69-6.39,7.38C424.163,177.373,425.933,181.062,430.553,181.062z"/>
		</g>
		<g>
			<path fill="#F1613D" d="M463.522,179.442l2.4,4.8c0,0-2.76,2.28-8.129,2.28c-6.99,0-13.41-5.7-13.41-12.779
				c0-7.11,6.39-12.87,13.41-12.87c5.37,0,8.129,2.28,8.129,2.28l-2.4,4.8c0,0-1.98-1.53-4.86-1.53c-5.669,0-8.16,3.96-8.16,7.26
				c0,3.33,2.49,7.29,8.16,7.29C461.542,180.973,463.522,179.442,463.522,179.442z"/>
		</g>
		<g>
			<path fill="#F1613D" d="M466.523,161.323h17.399v4.95h-5.88v19.799h-5.64v-19.799h-5.88V161.323z"/>
		</g>
		<g>
			<path fill="#F1613D" d="M496.372,160.873c6.87,0,12.45,5.58,12.45,12.81s-5.34,12.84-12.45,12.84
				c-7.32,0-12.479-5.61-12.479-12.84S489.562,160.873,496.372,160.873z M496.372,181.062c4.5,0,6.36-3.689,6.36-7.38
				c0-3.689-1.98-7.38-6.36-7.38c-4.35,0-6.39,3.69-6.39,7.38C489.982,177.373,491.752,181.062,496.372,181.062z"/>
		</g>
		<g>
			<path fill="#F1613D" d="M518.992,161.323c4.26,0,7.62,1.59,7.62,6.3c0,2.28-0.99,4.229-3.09,5.31c3.09,0.54,5.28,2.25,5.28,6.24
				c0,4.079-2.97,6.899-8.1,6.899h-9.39v-24.749H518.992z M517.402,171.013c2.43,0,3.75-0.75,3.75-2.819
				c0-1.771-1.29-2.521-3.75-2.521h-0.45v5.34H517.402z M518.722,181.723c2.67,0,4.14-0.811,4.14-2.76c0-2.28-1.47-3.09-4.14-3.09
				h-1.77v5.85H518.722z"/>
		</g>
		<g>
			<path fill="#F1613D" d="M545.452,166.273h-8.52v4.92h8.159v4.949h-8.159v4.979h8.52v4.95h-14.16v-24.749h14.16V166.273z"/>
		</g>
		<g>
			<path fill="#F1613D" d="M557.542,161.323c4.59,0,8.07,2.49,8.07,7.35c0,3.72-2.04,6.21-5.07,7.17l8.52,10.229h-7.169l-7.56-9.779
				v9.779h-5.64v-24.749H557.542z M554.992,172.303c2.13,0,4.68-0.15,4.68-3.24s-2.55-3.239-4.68-3.239h-0.66v6.479H554.992z"/>
		</g>
	</g>
</g>
</svg>
