<?xml version="1.0" encoding="utf-8"?>
<!-- Generator: Adobe Illustrator 16.0.5, SVG Export Plug-In . SVG Version: 6.00 Build 0)  -->
<!DOCTYPE svg PUBLIC "-//W3C//DTD SVG 1.1//EN" "http://www.w3.org/Graphics/SVG/1.1/DTD/svg11.dtd">
<svg version="1.1" xmlns="http://www.w3.org/2000/svg" xmlns:xlink="http://www.w3.org/1999/xlink" x="0px" y="0px"
	 width="143.589px" height="39.704px" viewBox="0 0 143.589 39.704" enable-background="new 0 0 143.589 39.704"
	 xml:space="preserve">
<g id="Layer_3" display="none">
	<rect x="-2.817" y="-3.019" display="inline" fill="#A01E21" width="154.25" height="46"/>
</g>
<g id="Layer_1">
	<text transform="matrix(1 0 0 1 0.5 8.2124)" fill="#FFFFFF" font-family="'LeagueSpartan-Bold'" font-size="9">WARWICK</text>
	<path fill="#FFFFFF" d="M4.261,28.314H0.5V11.811h3.761V28.314z"/>
	<path fill="#FFFFFF" d="M12.421,28.314H8.66V11.811h3.761l6.562,10.242h0.04V11.811h3.761v16.503h-3.761l-6.562-10.242h-0.04
		V28.314z"/>
	<path fill="#FFFFFF" d="M38.562,23.893l1.601,3.201c0,0-1.84,1.521-5.421,1.521c-4.661,0-8.942-3.801-8.942-8.522
		c0-4.741,4.261-8.582,8.942-8.582c3.581,0,5.421,1.521,5.421,1.521l-1.601,3.201c0,0-1.32-1.021-3.241-1.021
		c-3.781,0-5.441,2.641-5.441,4.841c0,2.22,1.66,4.861,5.441,4.861C37.242,24.913,38.562,23.893,38.562,23.893z"/>
	<path fill="#FFFFFF" d="M56.282,22.453c0,4.081-2.24,6.162-6.441,6.162c-4.201,0-6.441-2.081-6.441-6.162V11.811h3.761v9.542
		c0,2.761,0.84,3.561,2.68,3.561c1.841,0,2.681-0.8,2.681-3.561v-9.542h3.761V22.453z"/>
	<path fill="#FFFFFF" d="M65.601,11.811c2.841,0,5.081,1.06,5.081,4.201c0,1.521-0.66,2.821-2.061,3.541
		c2.061,0.36,3.521,1.5,3.521,4.161c0,2.721-1.98,4.601-5.401,4.601h-6.261V11.811H65.601z M64.541,18.272c1.62,0,2.5-0.5,2.5-1.88
		c0-1.181-0.86-1.681-2.5-1.681h-0.3v3.561H64.541z M65.42,25.414c1.781,0,2.761-0.541,2.761-1.841c0-1.52-0.98-2.06-2.761-2.06
		h-1.18v3.901H65.42z"/>
	<path display="none" opacity="0.4" fill="#F15824" d="M90.443,28.314h-4.041l-1.22-3.301H78.9l-1.22,3.301h-4.041L80.3,11.811
		h3.481L90.443,28.314z M82.061,16.912h-0.04l-1.84,4.801h3.721L82.061,16.912z"/>
	<path fill="#FFFFFF" d="M116.981,11.51c4.581,0,8.302,3.721,8.302,8.542c0,4.821-3.561,8.562-8.302,8.562
		c-4.881,0-8.322-3.741-8.322-8.562C108.659,15.231,112.44,11.51,116.981,11.51z M116.981,24.973c3.001,0,4.241-2.46,4.241-4.921
		s-1.32-4.921-4.241-4.921c-2.9,0-4.261,2.46-4.261,4.921S113.9,24.973,116.981,24.973z"/>
	<path fill="#FFFFFF" d="M134.841,11.811c3.061,0,5.381,1.66,5.381,4.901c0,2.48-1.36,4.141-3.38,4.781l5.681,6.821h-4.781
		l-5.041-6.521v6.521h-3.761V11.811H134.841z M133.141,19.132c1.42,0,3.121-0.1,3.121-2.16s-1.701-2.161-3.121-2.161h-0.44v4.321
		H133.141z"/>
	<line fill="none" stroke="#FFFFFF" stroke-width="3" stroke-miterlimit="10" x1="0.5" y1="32.212" x2="82.934" y2="32.212"/>
	<line fill="none" stroke="#FFFFFF" stroke-width="3" stroke-miterlimit="10" x1="92.443" y1="8.212" x2="142.522" y2="8.212"/>
	
		<line display="none" fill="none" stroke="#F15824" stroke-width="3" stroke-miterlimit="10" x1="74.639" y1="31.212" x2="82.041" y2="11.51"/>
	
		<line display="none" fill="none" stroke="#F15824" stroke-width="3" stroke-miterlimit="10" x1="94.639" y1="35.212" x2="108.041" y2="8.51"/>
	<polyline fill="none" stroke="#FFFFFF" stroke-width="3" stroke-miterlimit="10" points="74.639,31.212 82.928,11.811 
		93.443,36.212 108.041,8.212 	"/>
</g>
<g id="Layer_2">
</g>
</svg>
