<?xml version="1.0" encoding="utf-8"?>
<!-- Generator: Adobe Illustrator 16.0.5, SVG Export Plug-In . SVG Version: 6.00 Build 0)  -->
<!DOCTYPE svg PUBLIC "-//W3C//DTD SVG 1.1//EN" "http://www.w3.org/Graphics/SVG/1.1/DTD/svg11.dtd">
<svg version="1.1" id="iconmonstr" xmlns="http://www.w3.org/2000/svg" xmlns:xlink="http://www.w3.org/1999/xlink" x="0px" y="0px"
	 width="25.875px" height="28.75px" viewBox="0 0 25.875 28.75" enable-background="new 0 0 25.875 28.75" xml:space="preserve">
<g>
	<path d="M9.37,6.75c0.495,0,4.284,0,8.63,0c0.657,0,1.327,0,2,0c2.016,0,4.057,0,5.875,0v-2H20V4C20,4,4.401,4,3.495,4
		c-1.375,0-1.375-2,0-2C4.29,2,13.557,2,20,2V0H3C1.343,0,0,1.343,0,3v18c0,1.656,1.343,3,3,3h2.875v1.75c0,1.656,1.343,3,3,3h17
		v-20c0,0-2.677,0-5.875,0c-0.65,0-1.323,0-2,0c-4.025,0-8.175,0-8.63,0C7.995,8.75,7.995,6.75,9.37,6.75z M6.447,6
		C6.091,6.494,5.875,7.095,5.875,7.75V22H4V6H6.447 M9.875,10.75H18h2h3.875v16h-14V24v-2V10.75z"/>
</g>
</svg>
