<?xml version="1.0" encoding="utf-8"?>
<!-- Generator: Adobe Illustrator 16.0.5, SVG Export Plug-In . SVG Version: 6.00 Build 0)  -->
<!DOCTYPE svg PUBLIC "-//W3C//DTD SVG 1.1//EN" "http://www.w3.org/Graphics/SVG/1.1/DTD/svg11.dtd">
<svg version="1.1" id="iconmonstr" xmlns="http://www.w3.org/2000/svg" xmlns:xlink="http://www.w3.org/1999/xlink" x="0px" y="0px"
	 width="24px" height="24px" viewBox="0 0 24 24" enable-background="new 0 0 24 24" xml:space="preserve">
<path id="paintbrush-8" d="M0,0c2.799,1.2,8.683,0.955,8.307,6.371L6.164,8.557C0.826,8.65,0.925,2.952,0,0z M10.884,15.402
	c2.708,2.048,11.824,8.449,11.824,8.449c0.754,0.514,1.662-0.416,1.136-1.162c0,0-6.607-8.963-8.719-11.619
	c-1.668-2.101-2.502-2.175-5.46-3.046l-1.953,1.997C8.648,12.954,8.745,13.783,10.884,15.402z M6.007,18.734l2.62-2.627
	c-0.26-0.243-0.489-0.484-0.69-0.725L5.3,18.027L6.007,18.734z M14.251,7.572l4.804-4.814l2.154,2.155l-4.695,4.706
	c0.438,0.525,0.812,1.021,1.245,1.584L24,4.95L19.051,0L12.33,6.733C13.035,6.962,13.658,7.216,14.251,7.572z M19.088,4.206
	l-3.972,3.981c0.239,0.199,0.483,0.423,0.731,0.681l3.946-3.956L19.088,4.206z M9.387,16.761l-3.6,3.607l-2.979,0.823l0.824-2.979
	l3.677-3.686c-0.356-0.584-0.617-1.202-0.859-1.903l-4.626,4.635L0,24l6.773-1.79L11,17.975C10,17.247,9.97,17.227,9.387,16.761z"/>
</svg>
