<?xml version="1.0" encoding="utf-8"?>
<!-- Generator: Adobe Illustrator 16.0.5, SVG Export Plug-In . SVG Version: 6.00 Build 0)  -->
<!DOCTYPE svg PUBLIC "-//W3C//DTD SVG 1.1//EN" "http://www.w3.org/Graphics/SVG/1.1/DTD/svg11.dtd">
<svg version="1.1" id="iconmonstr" xmlns="http://www.w3.org/2000/svg" xmlns:xlink="http://www.w3.org/1999/xlink" x="0px" y="0px"
	 width="19px" height="22.2px" viewBox="0 0 19 22.2" style="enable-background:new 0 0 19 22.2;" xml:space="preserve">
<path d="M16.938,20.41v1.79H0V1.875h1.94V20.41H16.938z M19,8.8v10.4H3V0h6.727c3.887,0,2.669,6.399,2.669,6.399
	C14.803,5.804,19,6.064,19,8.8z M5.812,6.938h4.5V1.875h-4.5V6.938z M15.8,14.4H6.2v0.8h9.6V14.4z M15.8,12H6.2v0.8h9.6V12z
	 M15.8,9.6H6.2v0.8h9.6V9.6z M14.127,4.621C15.766,4.239,17.972,4.845,19,5.564c-1.195-1.598-4.185-4.566-5.945-5.505
	C13.979,0.995,14.305,3.447,14.127,4.621z"/>
</svg>
