<?xml version="1.0" encoding="utf-8"?>
<!-- Generator: Adobe Illustrator 16.0.5, SVG Export Plug-In . SVG Version: 6.00 Build 0)  -->
<!DOCTYPE svg PUBLIC "-//W3C//DTD SVG 1.1//EN" "http://www.w3.org/Graphics/SVG/1.1/DTD/svg11.dtd">
<svg version="1.1" id="iconmonstr" xmlns="http://www.w3.org/2000/svg" xmlns:xlink="http://www.w3.org/1999/xlink" x="0px" y="0px"
	 width="24px" height="24px" viewBox="0 0 24 24" style="enable-background:new 0 0 24 24;" xml:space="preserve">
<path id="calendar-5" d="M24,2v22H0V2h3v1c0,1.103,0.897,2,2,2s2-0.897,2-2V2h10v1c0,1.103,0.897,2,2,2s2-0.897,2-2V2H24z M22,8H2
	v14h20V8z M20,1c0-0.552-0.447-1-1-1s-1,0.448-1,1v2c0,0.552,0.447,1,1,1s1-0.448,1-1V1z M6,3c0,0.552-0.447,1-1,1S4,3.552,4,3V1
	c0-0.552,0.447-1,1-1s1,0.448,1,1V3z M12.687,16.482c0-0.802-0.418-1.429-1.109-1.695c0.528-0.264,0.836-0.806,0.836-1.503
	c0-1.346-1.312-2.149-2.581-2.149c-1.477,0-2.591,0.925-2.659,2.763h1.645c-0.014-0.761,0.271-1.314,1.025-1.314
	c0.449,0,0.933,0.272,0.933,0.869c0,0.754-0.816,0.862-1.567,0.797v1.279c1.067,0,1.704,0.068,1.704,0.986
	c0,0.724-0.548,1.047-1.091,1.047c-0.822,0-1.159-0.613-1.188-1.451H7.001C6.969,18.002,8.115,19,9.843,19
	C11.386,19,12.687,18.057,12.687,16.482z M17,19v-7.718h-1.392c-0.173,1.154-0.995,1.491-2.171,1.459v1.346h1.852V19H17z"/>
</svg>
