<?xml version="1.0" encoding="utf-8"?>
<!-- Generator: Adobe Illustrator 16.0.5, SVG Export Plug-In . SVG Version: 6.00 Build 0)  -->
<!DOCTYPE svg PUBLIC "-//W3C//DTD SVG 1.1//EN" "http://www.w3.org/Graphics/SVG/1.1/DTD/svg11.dtd">
<svg version="1.1" id="Layer_1" xmlns="http://www.w3.org/2000/svg" xmlns:xlink="http://www.w3.org/1999/xlink" x="0px" y="0px"
	 width="404.954px" height="482.992px" viewBox="0 0 404.954 482.992" enable-background="new 0 0 404.954 482.992"
	 xml:space="preserve">
<g id="Layer_1_1_">
	<line display="none" fill="none" x1="203.31" y1="236.491" x2="203.31" y2="495.491"/>
</g>
<path  d="M317.342,228.158c0-4.158,0.037-8.094,0.037-11.771c0-23.971-1.875-37.804-30.209-44.358
	c-32.68-7.539-63.129-14.167-48.387-42C283.643,45.305,250.667,0,203.299,0c-48.292,0-80.47,47.05-35.48,130.029
	c15.188,28.019-16.376,34.61-48.387,42c-28.297,6.536-30.191,20.369-30.191,44.284c0,3.712,0.038,7.648,0.038,11.845H317.342z
	 M404.811,256.491c0-13.5-14-13-14-13l-13.834,0.061c0-0.021,0-0.041,0-0.062c0-21.319-4.412-32.547-7.17-37.481
	c5.012-4.457,8.17-10.95,8.17-18.184c0-13.439-10.895-24.333-24.332-24.333s-24.334,10.894-24.334,24.333
	c0,13.439,10.896,24.333,24.334,24.333c0.781,0,1.557-0.041,2.318-0.113c7.455,13.998,6.68,31.444,6.68,31.444l0.025,0.101
	l-160.191,0.401l-188.333-0.5c0,0-14-0.5-14,13s-0.942,16.919,2,20.167l41.875,43.583c0,0,2.75,4,9.375,4s23.625,0,23.625,0
	s2.125,0.25,2.125-3.375s-0.333-24.208-0.333-24.208s-0.333-4.167,4.833-4.167s29.667-0.167,29.667-0.167l89,0.333v0.001
	l0.166-0.001l0.167,0.001v-0.001l89-0.333c0,0,24.499,0.167,29.667,0.167c5.166,0,4.832,4.167,4.832,4.167
	s-0.332,20.583-0.332,24.208s2.125,3.375,2.125,3.375s17,0,23.625,0s9.375-4,9.375-4l41.875-43.583
	C405.752,273.41,404.811,269.991,404.811,256.491z M201.643,307.492h-105.5l16.667,163.167c0,0,1.5,12.333,14,12.333
	c11.576,0,66.738,0,74.833,0c0.646,0,1,0,1,0c8.095,0,63.257,0,74.833,0c12.5,0,14-12.333,14-12.333l16.667-163.167h-105.5H201.643z
	"/>
</svg>
