<?xml version="1.0" encoding="utf-8"?>
<!-- Generator: Adobe Illustrator 16.0.5, SVG Export Plug-In . SVG Version: 6.00 Build 0)  -->
<!DOCTYPE svg PUBLIC "-//W3C//DTD SVG 1.1//EN" "http://www.w3.org/Graphics/SVG/1.1/DTD/svg11.dtd">
<svg version="1.1" id="iconmonstr" xmlns="http://www.w3.org/2000/svg" xmlns:xlink="http://www.w3.org/1999/xlink" x="0px" y="0px"
	 width="21.976px" height="15.875px" viewBox="0 0 21.976 15.875" style="enable-background:new 0 0 21.976 15.875;"
	 xml:space="preserve">
<path d="M21.976,0l-6,1.221l1.716,1.708l-6.85,6.733L7.841,6.66L0,14.457l1.41,1.418l6.427-6.39l2.991,2.993l8.28-8.137l1.667,1.66
	L21.976,0z M19.913,10.889l-1.167,0.183l0.682,1.393l-0.625,0.307l-0.688-1.406L17.295,12.1V8.907L19.913,10.889 M17.337,8.693
	l-0.21,0.104l-0.31-0.622l0.211-0.104L17.337,8.693z M17.86,7.973l-0.232-0.035l-0.103,0.687l0.231,0.035L17.86,7.973z M16.898,9.15
	l0.112-0.207L16.4,8.612l-0.112,0.206L16.898,9.15z"/>
</svg>
