<?xml version="1.0" encoding="utf-8"?>
<!-- Generator: Adobe Illustrator 16.0.5, SVG Export Plug-In . SVG Version: 6.00 Build 0)  -->
<!DOCTYPE svg PUBLIC "-//W3C//DTD SVG 1.1//EN" "http://www.w3.org/Graphics/SVG/1.1/DTD/svg11.dtd">
<svg version="1.1" id="iconmonstr" xmlns="http://www.w3.org/2000/svg" xmlns:xlink="http://www.w3.org/1999/xlink" x="0px" y="0px"
	 width="24px" height="18px" viewBox="0 3 24 18" enable-background="new 0 3 24 18" xml:space="preserve">
<path id="handshake-6" d="M12.152,18.614c0.314,0.229,0.383,0.671,0.15,0.983l-0.807,1.092c-0.215,0.295-0.682,0.375-0.986,0.15
	c-0.314-0.23-0.383-0.672-0.152-0.984l0.809-1.092C11.395,18.452,11.836,18.381,12.152,18.614z M7.223,17.568L8.03,16.48
	c0.23-0.314,0.164-0.756-0.152-0.986c-0.316-0.232-0.756-0.163-0.986,0.15l-0.806,1.088c-0.23,0.313-0.163,0.757,0.151,0.986
	C6.535,17.938,7.005,17.866,7.223,17.568z M9.739,17.727l-0.805,1.086c-0.231,0.314-0.162,0.758,0.151,0.988
	c0.301,0.221,0.77,0.145,0.987-0.152l0.805-1.088c0.231-0.312,0.163-0.754-0.151-0.985C10.413,17.344,9.973,17.41,9.739,17.727z
	 M13.302,19.844c-0.128,0.303-0.472,0.725-0.706,1.043C12.75,20.968,12.904,21,13.046,21c0.542,0,0.902-0.511,0.415-0.998
	L13.302,19.844z M8.316,16.686l-0.812,1.097c-0.23,0.313-0.157,0.745,0.156,0.979c0.308,0.226,0.768,0.15,0.981-0.143l0.812-1.099
	c0.232-0.312,0.163-0.754-0.152-0.984C8.986,16.305,8.546,16.373,8.316,16.686z M21.062,15.875L24,15.094L22.417,9l-2.979,0.896
	L21.062,15.875z M18.58,10.553c-1.453,0.106-2.834-0.429-4.352-1.212c-0.334-0.172-0.719-0.312-1.095-0.312
	c-0.346,0-0.685,0.119-0.969,0.441c-1.024,1.161-1.619,2.188-2.839,2.898c-0.601,0.351,0.104,1.45,1.396,0.999
	c0.658-0.23,1.55-0.827,2.277-1.413c0.571-0.461,0.914-0.394,1.41,0.102c0.928,0.928,4.053,4.012,4.053,4.012
	c0.483-0.297,0.95-0.538,1.413-0.745L18.58,10.553z M4.562,9.896L1.583,9L0,15.094l2.938,0.781L4.562,9.896z M17.968,17.021
	c-0.483-0.533-3.737-3.732-4.315-4.31c-0.98,0.736-2.272,1.761-3.521,1.761c-0.943,0-1.752-0.557-1.968-1.354
	c-0.173-0.635,0.093-1.285,0.66-1.616c0.71-0.414,1.181-0.981,1.755-1.691c-1.754-1.108-3.25,0.692-5.149,0.709l-1.273,4.685
	c0.556,0.132,1.04,0.272,1.489,0.44l0.44-0.596c0.792-1.08,2.444-0.857,2.95,0.352c0.64,0.057,1.186,0.47,1.424,1.039
	c0.619,0.056,1.174,0.447,1.422,1.039c0.937,0.082,1.7,0.931,1.53,1.973l0.654,0.652c0.274,0.276,0.723,0.275,0.996,0
	c0.276-0.275,0.276-0.722,0-0.998l-1.264-1.266c-0.068-0.068-0.068-0.183,0.003-0.251c0.069-0.065,0.179-0.065,0.247,0.002
	l1.523,1.524c0.275,0.275,0.723,0.275,0.998,0s0.275-0.723,0-0.998l-1.875-1.877c-0.072-0.07-0.069-0.188,0.006-0.256
	c0.068-0.062,0.178-0.062,0.242,0.007l2.025,2.024c0.275,0.276,0.723,0.276,0.998,0C18.242,17.742,18.243,17.298,17.968,17.021z
	 M10.582,3L9.598,3.174l0.521,2.954l0.984-0.174L10.582,3z M14.402,3.174L13.418,3l-0.521,2.954l0.986,0.174L14.402,3.174z
	 M18,4.402l-0.867-0.5l-1.5,2.598L16.5,7L18,4.402z M6.867,3.902L6,4.402L7.5,7l0.867-0.5L6.867,3.902z"/>
</svg>
