<?xml version="1.0" encoding="utf-8"?>
<!-- Generator: Adobe Illustrator 16.0.5, SVG Export Plug-In . SVG Version: 6.00 Build 0)  -->
<!DOCTYPE svg PUBLIC "-//W3C//DTD SVG 1.1//EN" "http://www.w3.org/Graphics/SVG/1.1/DTD/svg11.dtd">
<svg version="1.1" id="Layer_1" xmlns="http://www.w3.org/2000/svg" xmlns:xlink="http://www.w3.org/1999/xlink" x="0px" y="0px"
	 width="493.92px" height="408.547px" viewBox="0 0 493.92 408.547" enable-background="new 0 0 493.92 408.547"
	 xml:space="preserve">
<path d="M378.855,408.548H150.791c0-4.196-0.038-8.133-0.038-11.846c0-23.915,1.895-37.748,30.191-44.283
	c32.01-7.392,63.575-13.981,48.387-42c-44.989-82.979-12.812-130.029,35.48-130.029c47.366,0,80.344,45.305,35.483,130.029
	c-14.743,27.832,15.707,34.461,48.386,42c28.335,6.554,30.21,20.388,30.21,44.356C378.893,400.455,378.855,404.391,378.855,408.548z
	 M493.92,172.983c0-11.022-5.944-20.656-14.802-25.871c-4.457-2.624-9.651-4.128-15.197-4.128c-4.38,0-8.536,0.946-12.287,2.633
	l-81.601-98.466c3.396-4.862,5.394-10.772,5.394-17.152C375.427,13.431,361.996,0,345.428,0c-8.504,0-16.183,3.539-21.642,9.224
	c-4.104,4.276-6.948,9.768-7.952,15.878L147.896,42.979c-4.393-11.115-15.225-18.982-27.902-18.982
	c-12.762,0-23.662,7.968-27.997,19.2c-1.293,3.351-2.002,6.992-2.002,10.799c0,7.732,2.927,14.779,7.731,20.099l-58.958,92.694
	c-2.774-0.847-5.718-1.306-8.769-1.306c-6.264,0-12.079,1.919-16.89,5.203C5.195,176.086,0,185.178,0,195.482
	c0,7.732,2.927,14.78,7.731,20.099l-0.587,0.924l0.975-0.512c5.473,5.836,13.249,9.487,21.88,9.487c1.209,0,2.399-0.08,3.571-0.22
	l38.051,92.735c-7.069,5.486-11.624,14.062-11.624,23.704c0,1.731,0.146,3.428,0.428,5.077c2.413,14.15,14.734,24.922,29.571,24.922
	c16.568,0,29.999-13.432,29.999-29.999c0-12.701-7.896-23.55-19.045-27.927l8.088-77.57l75.942,30.831
	c-1.18-6.324-1.946-12.396-2.343-18.22l-71.872-29.18l6.342-60.822l72.51-38.041l46.644,37.836
	c6.492-2.046,13.388-3.353,20.583-3.905l-51.804-42.022l118.508-62.172c5.474,5.836,13.248,9.487,21.88,9.487
	c4.38,0,8.537-0.946,12.288-2.634l81.601,98.465c-3.396,4.862-5.395,10.773-5.395,17.153c0,3.074,0.464,6.039,1.323,8.831
	l-81.095,51.825l-7.831-6.353c0.953,9.389,0.775,19.652-0.695,30.789l7.413-4.737l72.891,59.128
	c-1.606,3.676-2.505,7.732-2.505,12.002c0,16.568,13.431,29.999,29.999,29.999s29.999-13.431,29.999-29.999
	c0-4.413-0.953-8.604-2.664-12.377c-3.354-7.398-9.636-13.179-17.356-15.902l6.503-93.805
	C483.604,199.611,493.92,187.502,493.92,172.983z M59.319,189.134l40.771-21.39l-4.757,45.628l-35.54-14.428
	c0.131-1.137,0.205-2.291,0.205-3.462C59.998,193.303,59.76,191.181,59.319,189.134z M53.774,213.768l39.831,16.17l-8.271,79.328
	l-36.961-90.078C50.396,217.617,52.211,215.796,53.774,213.768z M102.083,148.628l-49.231,25.828l55.663-87.509L102.083,148.628z
	 M119.101,139.701l5.852-56.121c4.587-0.764,8.819-2.567,12.452-5.162l38.688,31.383L119.101,139.701z M191.515,101.711
	l-44.026-35.713c0.979-2.24,1.692-4.622,2.101-7.107l154.997-16.499L191.515,101.711z M443.869,195.292
	c2.9,2.61,6.315,4.659,10.073,5.984l-6.502,93.791c-4.194,0.85-8.066,2.578-11.429,4.979l-68.769-55.785L443.869,195.292z"/>
</svg>
