<?xml version="1.0" encoding="utf-8"?>
<!-- Generator: Adobe Illustrator 16.0.5, SVG Export Plug-In . SVG Version: 6.00 Build 0)  -->
<!DOCTYPE svg PUBLIC "-//W3C//DTD SVG 1.1//EN" "http://www.w3.org/Graphics/SVG/1.1/DTD/svg11.dtd">
<svg version="1.1" xmlns="http://www.w3.org/2000/svg" xmlns:xlink="http://www.w3.org/1999/xlink" x="0px" y="0px" width="24px"
	 height="15px" viewBox="0 -3 24 15" enable-background="new 0 -3 24 15" xml:space="preserve">
<g id="iconmonstr">
	<path id="user-29" d="M17.997,12H6.002C6.002,11.779,6,11.572,6,11.377c0-1.258,0.1-1.984,1.588-2.329
		c1.684-0.389,3.344-0.735,2.545-2.209C7.767,2.475,9.459,0,11.999,0c2.491,0,4.226,2.383,1.866,6.839
		C13.09,8.303,14.691,8.65,16.41,9.048c1.49,0.345,1.589,1.072,1.589,2.333C17.999,11.574,17.997,11.781,17.997,12z M22.809,9.786
		c-1.291-0.298-2.49-0.56-1.91-1.657C22.668,4.787,21.368,3,19.499,3c-1.265,0-2.248,0.816-2.248,2.324
		c0,3.902,2.269,1.77,2.246,6.676h4.501c0-0.164,0.002-0.318,0.002-0.463C24,10.591,23.926,10.044,22.809,9.786z M0.002,12h4.501
		C4.482,7.094,6.749,9.229,6.749,5.324C6.749,3.816,5.766,3,4.501,3C2.632,3,1.332,4.787,3.102,8.129
		c0.581,1.1-0.619,1.359-1.909,1.657C0.074,10.044,0,10.591,0,11.537C0,11.682,0.002,11.836,0.002,12z"/>
</g>
<g id="Layer_2">
</g>
</svg>
