<?xml version="1.0" encoding="utf-8"?>
<!-- Generator: Adobe Illustrator 16.0.5, SVG Export Plug-In . SVG Version: 6.00 Build 0)  -->
<!DOCTYPE svg PUBLIC "-//W3C//DTD SVG 1.1//EN" "http://www.w3.org/Graphics/SVG/1.1/DTD/svg11.dtd">
<svg version="1.1" id="iconmonstr" xmlns="http://www.w3.org/2000/svg" xmlns:xlink="http://www.w3.org/1999/xlink" x="0px" y="0px"
	 width="18px" height="24px" viewBox="3 0 18 24" enable-background="new 3 0 18 24" xml:space="preserve">
<path id="time-8" d="M12,12h3v2h-5V8h2V12z M21,11h-1.07c-0.25-2.006-1.218-3.792-2.646-5.093C16.001,4.741,16.057,3.66,15.427,0
	H7.573C6.945,3.66,7,4.741,5.717,5.907C4.047,7.427,3,9.608,3,12.031c0,2.424,1.048,4.605,2.72,6.125C7,19.32,6.952,20.424,7.573,24
	h7.854c0.621-3.576,0.573-4.68,1.854-5.844c1.445-1.313,2.421-3.124,2.658-5.156H21V11z M11.5,18.5C7.911,18.5,5,15.59,5,12
	c0-3.589,2.911-6.5,6.5-6.5c3.59,0,6.5,2.911,6.5,6.5C18,15.59,15.09,18.5,11.5,18.5z"/>
</svg>
